<svg width="355" height="295" viewBox="0 0 355 295" fill="none" xmlns="http://www.w3.org/2000/svg">
<path d="M280.036 224.397C268.011 222.992 256.897 217.294 248.736 208.35C246.591 205.981 244.627 203.304 243.901 200.192C243.176 197.079 243.938 193.45 246.452 191.478C248.967 189.505 253.279 189.977 254.736 192.821C253.492 193.776 251.817 192.419 250.861 191.176C249.584 189.514 248.298 187.798 247.66 185.801C247.023 183.804 247.145 181.44 248.491 179.833C249.838 178.227 252.578 177.794 254.049 179.287C251.314 177.803 249.186 175.406 248.038 172.514C247.482 171.098 247.188 169.451 247.861 168.087C248.533 166.722 250.483 165.958 251.655 166.927C248.921 165.957 246.992 163.354 246.227 160.555C245.462 157.756 245.713 154.777 246.264 151.928C246.616 150.108 247.196 148.149 248.732 147.111C251.656 145.137 255.426 147.77 257.94 150.245C256.932 148.079 256.388 145.726 256.342 143.337C256.296 140.949 256.75 138.577 257.674 136.373C258.598 134.17 259.972 132.184 261.708 130.542C263.444 128.901 265.503 127.64 267.755 126.84C270.006 126.041 272.4 125.721 274.782 125.9C277.165 126.079 279.484 126.754 281.59 127.881C283.697 129.008 285.545 130.563 287.016 132.446C288.487 134.328 289.548 136.498 290.132 138.814C291.561 131.935 299.979 127.5 306.46 130.213C313.109 132.995 315.833 140.987 316.414 148.171C316.94 154.675 315.907 162.095 310.686 166.009C312.803 164.598 315.713 164.75 317.948 165.966C320.183 167.182 321.804 169.313 322.896 171.611C324.031 173.995 324.658 176.589 324.739 179.229C324.819 181.868 324.352 184.496 323.366 186.945C322.379 189.395 320.896 191.614 319.009 193.461C317.122 195.308 314.872 196.744 312.402 197.677C315.229 196.597 318.438 199.255 318.826 202.257C319.214 205.259 317.541 208.172 315.443 210.354C312.123 213.787 307.731 215.984 302.992 216.58C304.433 216.522 305.146 218.579 304.414 219.821C303.682 221.063 302.19 221.602 300.808 222.01C294.581 223.846 288.151 224.906 281.664 225.164" fill="#F9EEFF"/>
<path d="M4.80577 294.34H351.45C351.599 294.334 351.74 294.272 351.843 294.165C351.946 294.058 352.004 293.915 352.004 293.766C352.004 293.617 351.946 293.474 351.843 293.367C351.74 293.26 351.599 293.198 351.45 293.192H4.80577C4.65712 293.198 4.51631 293.26 4.413 293.367C4.30969 293.474 4.25195 293.617 4.25195 293.766C4.25195 293.915 4.30969 294.058 4.413 294.165C4.51631 294.272 4.65712 294.334 4.80577 294.34Z" fill="#1D1D32"/>
<path d="M137.306 13.4205C137.632 17.1492 138.272 20.8436 139.221 24.4642C139.409 25.1777 140.516 24.8751 140.328 24.1592C139.401 20.6389 138.774 17.0465 138.453 13.4204C138.389 12.6906 137.241 12.6839 137.306 13.4204L137.306 13.4205Z" fill="#1D1D32"/>
<path d="M158.427 6.05735C158.444 11.6134 158.23 17.1631 157.787 22.7065C157.728 23.4426 158.876 23.4388 158.934 22.7065C159.377 17.1682 159.591 11.6184 159.575 6.05735C159.569 5.90861 159.507 5.76766 159.4 5.66425C159.293 5.56083 159.15 5.50302 159.001 5.50302C158.852 5.50302 158.709 5.56083 158.602 5.66425C158.495 5.76766 158.432 5.90861 158.427 6.05735Z" fill="#1D1D32"/>
<path d="M181.584 9.62322C178.79 15.0032 176.1 20.4358 173.516 25.9209C173.203 26.5851 174.191 27.1681 174.506 26.5C177.09 21.016 179.78 15.5834 182.574 10.2023C182.914 9.54789 181.925 8.9669 181.584 9.62322Z" fill="#1D1D32"/>
<path d="M187.915 38.1709C188.37 37.6244 188.86 37.1076 189.381 36.6237C189.635 36.3884 189.896 36.1612 190.165 35.9423C190.237 35.8831 190.31 35.8246 190.384 35.7667C190.396 35.7569 190.493 35.6815 190.423 35.7357C190.453 35.7128 190.482 35.6901 190.512 35.6676C190.661 35.5545 190.812 35.4441 190.965 35.3362C191.094 35.2572 191.188 35.1314 191.226 34.9852C191.264 34.8389 191.245 34.6835 191.171 34.5514C191.093 34.4213 190.967 34.327 190.821 34.2885C190.674 34.2501 190.518 34.2705 190.386 34.3455C189.166 35.2036 188.063 36.2167 187.104 37.3594C186.999 37.4686 186.941 37.6139 186.941 37.765C186.941 37.9162 186.999 38.0615 187.104 38.1707C187.212 38.2766 187.358 38.3359 187.509 38.3359C187.661 38.3359 187.807 38.2766 187.915 38.1707L187.915 38.1709Z" fill="#1D1D32"/>
<path d="M109.682 107.953C107.154 109.595 105.139 111.917 103.868 114.651C102.598 117.386 102.124 120.423 102.5 123.414C102.739 125.233 103.286 126.998 104.116 128.634C104.45 129.292 105.44 128.712 105.107 128.055C103.454 124.795 103.066 121.039 104.018 117.51C104.969 113.982 107.193 110.93 110.261 108.944C110.878 108.543 110.304 107.55 109.682 107.953H109.682Z" fill="#1D1D32"/>
<path d="M93.5709 121.816C93.1946 120.263 93.1442 118.65 93.4229 117.078C93.7017 115.505 94.3035 114.007 95.1904 112.679C95.6014 112.063 94.6082 111.488 94.1997 112.1C93.2357 113.56 92.5839 115.205 92.2853 116.929C91.9867 118.653 92.0478 120.421 92.4646 122.121C92.6413 122.837 93.748 122.534 93.5709 121.816Z" fill="#1D1D32"/>
<path d="M37.6539 76.4295H53.9829C54.1316 76.4243 54.2724 76.3616 54.3757 76.2545C54.479 76.1475 54.5367 76.0046 54.5367 75.8559C54.5367 75.7071 54.479 75.5642 54.3757 75.4572C54.2724 75.3502 54.1316 75.2875 53.9829 75.2822H37.6539C37.5053 75.2875 37.3645 75.3502 37.2611 75.4572C37.1578 75.5642 37.1001 75.7071 37.1001 75.8559C37.1001 76.0046 37.1578 76.1475 37.2611 76.2545C37.3645 76.3616 37.5053 76.4243 37.6539 76.4295Z" fill="#1D1D32"/>
<path d="M54.1783 75.7447C52.5473 72.946 52.4688 69.2024 54.2659 66.457C55.9256 63.9215 59.095 62.9873 61.9437 63.8714C62.6974 64.0889 63.3973 64.4613 63.9989 64.9647C64.6005 65.4681 65.0904 66.0915 65.4374 66.795C65.713 67.3737 66.7369 66.9558 66.4859 66.353C64.5986 61.8204 66.5973 56.1194 71.1019 54.0178C73.3993 52.9944 75.9983 52.8756 78.3794 53.6852C80.8548 54.5095 82.7253 56.3377 83.9123 58.6287C85.3207 61.3471 85.797 64.4704 86.1598 67.476C86.2212 67.9842 86.94 68.327 87.2288 67.7655C88.274 65.7333 89.7203 63.0357 92.3653 63.0823C95.1289 63.1309 96.9498 65.7448 97.5596 68.1694C97.9733 69.8144 98.0189 71.5214 98.065 73.2084C98.0684 73.3327 98.1117 73.4526 98.1886 73.5503C98.2655 73.648 98.3718 73.7183 98.4918 73.7508C98.6118 73.7833 98.7391 73.7763 98.8548 73.7307C98.9705 73.6852 99.0684 73.6036 99.134 73.498C100.524 70.8938 104.475 70.1439 106.683 72.1462C107.228 72.6412 108.042 71.8322 107.494 71.335C104.76 68.8557 99.8946 69.6373 98.1433 72.9189L99.2123 73.2084C99.1253 70.0256 98.9722 66.444 96.6567 63.9926C95.6634 62.9019 94.3233 62.1883 92.8638 61.9729C92.1661 61.9004 91.4609 61.9756 90.7942 62.1938C90.1275 62.4119 89.5142 62.768 88.9943 63.239C87.7677 64.2918 86.9667 65.7697 86.238 67.1866L87.307 67.4761C86.6347 61.9062 85.2871 55.345 79.5317 52.9027C76.993 51.8251 74.1461 51.7216 71.536 52.6121C70.2646 53.0654 69.096 53.7667 68.0979 54.6753C67.0998 55.584 66.2922 56.6818 65.7219 57.9051C65.0627 59.2611 64.692 60.7391 64.633 62.2457C64.5741 63.7522 64.8282 65.2547 65.3794 66.658L66.4279 66.216C64.9614 63.1369 61.2051 61.9122 58.0187 62.5816C54.3737 63.3474 52.1385 66.6836 51.8299 70.2521C51.651 72.3672 52.1248 74.4863 53.1877 76.3237C53.2671 76.4497 53.3924 76.5399 53.537 76.5752C53.6817 76.6106 53.8344 76.5883 53.963 76.5132C54.0915 76.438 54.1859 76.3158 54.2261 76.1725C54.2662 76.0291 54.2491 75.8757 54.1783 75.7447Z" fill="#1D1D32"/>
<path d="M215.032 98.8419H232.001C232.15 98.8366 232.291 98.7739 232.394 98.6669C232.497 98.5599 232.555 98.417 232.555 98.2682C232.555 98.1195 232.497 97.9766 232.394 97.8695C232.291 97.7625 232.15 97.6998 232.001 97.6946H215.032C214.883 97.6998 214.742 97.7625 214.639 97.8695C214.536 97.9766 214.478 98.1195 214.478 98.2682C214.478 98.417 214.536 98.5599 214.639 98.6669C214.742 98.7739 214.883 98.8366 215.032 98.8419Z" fill="#1D1D32"/>
<path d="M233.441 98.3117C232.866 97.5141 232.532 96.5679 232.481 95.586C232.429 94.6042 232.661 93.6282 233.149 92.7747C233.655 91.9368 234.409 91.277 235.307 90.8871C236.204 90.4971 237.201 90.3961 238.159 90.5983C239.267 90.793 240.276 91.3622 241.015 92.2108C241.379 92.633 241.939 92.2451 241.995 91.8051C242.262 89.6929 242.889 87.0362 244.888 85.8844C246.327 85.0548 248.596 85.1496 249.401 86.7992C249.727 87.4653 250.704 86.8828 250.392 86.2202C249.298 83.8956 249.527 81.1104 250.662 78.8453C251.229 77.6755 252.051 76.6481 253.069 75.8395C254.087 75.0309 255.274 74.4617 256.542 74.1741C259.214 73.6318 261.992 74.1644 264.275 75.6565C266.75 77.254 268.23 79.8828 268.936 82.6891C269.78 86.0427 269.651 89.566 269.489 92.9912C269.457 93.6692 270.41 93.7263 270.616 93.1438C271.341 91.0863 273.707 89.6688 275.869 90.1023C276.972 90.3523 277.952 90.9817 278.638 91.8805C279.324 92.7794 279.673 93.8906 279.623 95.0202C279.625 95.1718 279.686 95.3165 279.793 95.4237C279.9 95.5309 280.045 95.5919 280.197 95.5939L282.269 95.64C283.007 95.6565 283.007 94.5092 282.269 94.4927L280.197 94.4466L280.77 95.0202C280.808 93.9289 280.548 92.8479 280.017 91.8934C279.487 90.9389 278.706 90.1469 277.76 89.6025C276.821 89.0878 275.755 88.8487 274.686 88.9128C273.617 88.9768 272.588 89.3414 271.718 89.9646C270.697 90.6661 269.924 91.6721 269.509 92.8389L270.636 92.9915C270.931 86.7659 270.975 79.1678 265.419 75.0568C262.967 73.2645 259.91 72.506 256.905 72.9445C255.48 73.1664 254.121 73.7031 252.929 74.5157C251.736 75.3283 250.74 76.3963 250.012 77.6421C248.375 80.3994 248.022 83.8688 249.402 86.7996L250.392 86.2205C249.339 84.0647 246.446 83.8003 244.497 84.7924C241.97 86.0788 241.173 89.2303 240.847 91.8055L241.827 91.3999C241.02 90.5161 239.978 89.8821 238.822 89.5731C237.666 89.2641 236.446 89.2931 235.306 89.6566C232.941 90.4196 231.461 92.6238 231.335 95.0656C231.254 96.4312 231.648 97.7828 232.45 98.8912C232.886 99.4763 233.883 98.9049 233.441 98.3121L233.441 98.3117Z" fill="#1D1D32"/>
<path d="M39.7713 293.398C37.8674 289.828 38.3371 284.976 41.2885 282.208C44.2398 279.44 49.5545 279.489 52.0945 282.639C50.7885 280.228 51.6631 276.886 53.9606 275.39C56.2581 273.893 59.6365 274.422 61.3984 276.523C57.4789 272.267 57.0697 265.344 60.0739 260.399C63.0781 255.454 69.0734 252.649 74.8474 253.024C80.6214 253.399 86.0196 256.74 89.3664 261.46C92.7132 266.18 94.0843 272.153 93.6683 277.924C93.8944 275.3 96.3778 273.188 99.0051 273.01C101.632 272.831 104.202 274.352 105.676 276.534C107.151 278.716 107.625 281.461 107.421 284.086C108.266 282.509 109.615 281.262 111.253 280.543C112.891 279.825 114.723 279.677 116.455 280.123C118.187 280.569 119.719 281.584 120.805 283.005C121.892 284.426 122.47 286.17 122.448 287.959C123.236 284.571 126.764 282.055 130.224 282.413C133.684 282.772 136.621 285.956 136.7 289.434C137.557 288.679 138.611 288.184 139.739 288.006C140.867 287.828 142.022 287.974 143.07 288.428C144.118 288.882 145.015 289.624 145.656 290.569C146.298 291.513 146.658 292.621 146.694 293.762" fill="#F9EEFF"/>
<path d="M40.2669 293.109C38.8465 290.391 38.812 286.918 40.3849 284.252C41.125 283.027 42.2122 282.049 43.5086 281.443C44.8051 280.836 46.2525 280.629 47.6673 280.846C49.236 281.049 50.6712 281.834 51.6891 283.045C52.1203 283.567 52.8784 282.902 52.5901 282.35C51.4666 280.199 52.1971 277.219 54.2504 275.885C56.3792 274.502 59.3585 275.037 60.993 276.929L61.8043 276.118C59.0053 273.037 58.1002 268.569 59.0157 264.558C59.9666 260.393 62.9158 257.072 66.7118 255.212C70.5898 253.341 75.0475 253.069 79.1244 254.454C83.345 255.907 86.9546 258.737 89.3732 262.489C92.3251 267.039 93.4649 272.553 93.095 277.924C93.0438 278.668 94.1681 278.647 94.2423 277.924C94.518 275.239 97.2569 273.42 99.8234 273.582C102.805 273.769 105.229 276.13 106.207 278.834C106.787 280.52 107.006 282.31 106.848 284.086C106.806 284.661 107.652 284.858 107.917 284.376C108.543 283.267 109.435 282.331 110.513 281.651C111.59 280.972 112.82 280.57 114.091 280.482C115.376 280.414 116.657 280.688 117.802 281.275C118.948 281.863 119.917 282.744 120.611 283.828C121.43 285.05 121.869 286.487 121.874 287.959C121.878 288.095 121.931 288.226 122.022 288.327C122.113 288.429 122.238 288.495 122.373 288.513C122.508 288.531 122.646 288.501 122.761 288.427C122.876 288.354 122.961 288.242 123.001 288.111C123.41 286.559 124.348 285.197 125.652 284.261C126.957 283.324 128.547 282.871 130.149 282.98C133.356 283.279 136.017 286.254 136.126 289.434C136.13 289.546 136.165 289.654 136.229 289.746C136.292 289.838 136.381 289.91 136.485 289.953C136.588 289.996 136.702 290.008 136.812 289.988C136.922 289.968 137.024 289.916 137.105 289.839C137.882 289.165 138.834 288.724 139.851 288.568C140.867 288.412 141.907 288.547 142.851 288.957C143.794 289.368 144.601 290.037 145.18 290.887C145.759 291.737 146.085 292.734 146.121 293.762C146.155 294.497 147.302 294.502 147.268 293.762C147.231 292.508 146.837 291.29 146.132 290.252C145.427 289.214 144.441 288.398 143.288 287.901C142.136 287.404 140.866 287.246 139.627 287.446C138.388 287.645 137.232 288.194 136.294 289.028L137.274 289.434C137.201 287.974 136.735 286.562 135.925 285.346C135.115 284.13 133.991 283.155 132.672 282.526C129.938 281.239 126.815 281.808 124.509 283.696C123.218 284.749 122.301 286.191 121.895 287.806L123.021 287.959C123.003 286.466 122.608 285.001 121.873 283.701C121.139 282.401 120.088 281.307 118.819 280.52C117.557 279.771 116.122 279.363 114.655 279.335C113.188 279.308 111.739 279.663 110.45 280.366C108.965 281.14 107.74 282.333 106.926 283.797L107.995 284.086C108.247 280.581 107.322 276.761 104.539 274.414C102.055 272.319 98.4284 271.655 95.6697 273.634C94.9582 274.123 94.3601 274.759 93.9159 275.499C93.4717 276.239 93.1917 277.066 93.095 277.924H94.2423C94.5928 272.834 93.6092 267.603 91.1017 263.132C88.7642 258.943 85.0884 255.659 80.663 253.807C76.3872 252.017 71.5784 251.982 67.2771 253.71C63.1105 255.418 59.643 258.722 58.2388 263.058C56.7156 267.762 57.6358 273.233 60.9931 276.929C61.4933 277.48 62.283 276.672 61.8044 276.118C59.8249 273.826 56.0756 273.223 53.5518 274.975C52.3354 275.853 51.471 277.136 51.1134 278.593C50.7557 280.05 50.928 281.587 51.5995 282.929L52.5005 282.234C50.4124 279.705 46.6884 279.049 43.6799 280.124C40.3388 281.317 38.3596 284.501 38.0901 287.955C37.9419 289.939 38.3528 291.926 39.2763 293.688C39.6184 294.343 40.6089 293.763 40.2669 293.109L40.2669 293.109Z" fill="#1D1D32"/>
<path d="M278.064 160.699C277.53 178.984 277.06 197.271 276.652 215.559C276.246 233.754 275.902 251.949 275.62 270.147C275.462 280.412 275.322 290.677 275.203 300.943C275.195 301.681 276.342 301.682 276.35 300.943C276.563 282.651 276.839 264.361 277.177 246.071C277.513 227.875 277.911 209.68 278.372 191.487C278.632 181.224 278.911 170.961 279.211 160.699C279.232 159.961 278.085 159.962 278.064 160.699Z" fill="#1D1D32"/>
<path d="M276.799 219.956C268.219 218.938 260.051 215.706 253.097 210.578C249.658 208.049 246.347 205.03 243.834 201.561C241.466 198.291 239.855 193.89 241.919 190.052C242.35 189.191 242.996 188.457 243.796 187.921C244.595 187.385 245.521 187.067 246.48 186.996C248.275 186.891 250.13 187.597 251.003 189.243L251.209 188.459C250.046 189.279 248.67 187.725 248.016 186.884C247.005 185.657 246.133 184.322 245.416 182.903C244.316 180.566 244.082 176.909 246.744 175.504C247.897 174.895 249.432 174.88 250.406 175.826L251.101 174.925C248.569 173.55 246.575 171.36 245.442 168.711C244.884 167.386 244.415 165.613 245.238 164.294C245.757 163.463 247.124 162.779 248.012 163.466L248.57 162.507C244.489 161.011 242.99 156.37 243.089 152.393C243.127 151.174 243.257 149.96 243.478 148.761C243.628 147.768 243.879 146.793 244.227 145.851C244.956 144.032 246.549 142.819 248.564 143.2C250.797 143.622 252.719 145.24 254.297 146.784C254.397 146.878 254.527 146.933 254.664 146.94C254.8 146.946 254.935 146.904 255.043 146.82C255.152 146.737 255.227 146.617 255.255 146.483C255.284 146.349 255.263 146.209 255.198 146.089C252.092 139.329 254.054 130.791 259.93 126.197C262.785 123.982 266.264 122.721 269.875 122.592C273.414 122.489 276.888 123.552 279.763 125.619C282.999 127.91 285.327 131.266 286.341 135.1C286.377 135.219 286.45 135.323 286.55 135.396C286.65 135.47 286.77 135.51 286.894 135.51C287.018 135.51 287.139 135.47 287.239 135.396C287.338 135.323 287.411 135.219 287.447 135.1C288.225 131.472 290.962 128.593 294.311 127.131C295.986 126.366 297.825 126.031 299.662 126.155C301.499 126.279 303.277 126.858 304.834 127.841C308.154 129.974 310.149 133.634 311.289 137.316C312.486 141.261 312.947 145.392 312.649 149.503C312.335 154.008 310.901 158.807 307.158 161.647C306.587 162.08 307.101 163.049 307.737 162.638C310.207 161.039 313.434 161.656 315.654 163.403C317.992 165.244 319.446 168.092 320.229 170.913C321.475 175.365 321.016 180.123 318.942 184.255C316.867 188.387 313.326 191.597 309.011 193.257C308.332 193.517 308.616 194.617 309.316 194.364C311.004 193.753 312.709 194.56 313.827 195.858C315.125 197.367 315.316 199.372 314.782 201.237C314.201 203.264 312.892 205.018 311.407 206.479C308.24 209.58 304.15 211.567 299.754 212.14C299.045 212.23 298.993 213.29 299.754 213.287C300.87 213.284 301.119 214.888 300.681 215.665C299.905 217.039 297.991 217.432 296.601 217.826C292.834 218.897 288.991 219.681 285.106 220.173C282.888 220.451 280.662 220.635 278.426 220.724C277.691 220.754 277.687 221.902 278.426 221.871C282.946 221.688 287.442 221.123 291.866 220.182C293.997 219.728 296.133 219.212 298.209 218.547C299.706 218.068 301.549 217.233 301.954 215.541C302.31 214.054 301.469 212.134 299.754 212.14V213.287C304.425 212.706 308.781 210.621 312.162 207.346C315.236 204.344 317.936 199.255 314.858 195.317C313.501 193.581 311.186 192.471 309.012 193.257L309.317 194.364C313.826 192.675 317.558 189.391 319.805 185.132C322.051 180.874 322.657 175.939 321.505 171.265C320.763 168.167 319.256 165.016 316.825 162.892C314.21 160.607 310.228 159.661 307.159 161.647L307.738 162.638C311.302 159.933 313.016 155.72 313.602 151.39C314.168 146.989 313.877 142.519 312.743 138.228C311.687 134.194 309.752 130.156 306.393 127.548C304.811 126.312 302.946 125.489 300.966 125.154C298.987 124.819 296.955 124.981 295.054 125.627C290.877 127.008 287.281 130.409 286.341 134.795H287.448C285.557 127.435 278.748 121.762 271.126 121.449C267.262 121.312 263.453 122.401 260.245 124.559C257.003 126.748 254.602 129.975 253.435 133.708C252.087 137.976 252.363 142.591 254.207 146.668L255.108 145.973C253.476 144.376 251.538 142.789 249.288 142.19C248.27 141.884 247.18 141.919 246.184 142.289C245.188 142.659 244.34 143.344 243.768 144.241C243.198 145.194 242.8 146.24 242.593 147.331C242.31 148.602 242.115 149.891 242.007 151.189C241.795 153.757 242.039 156.403 243.152 158.755C244.154 160.982 245.99 162.726 248.265 163.613C248.784 163.804 249.275 163.004 248.823 162.655C248.382 162.317 247.852 162.115 247.298 162.072C246.744 162.028 246.189 162.145 245.7 162.41C245.138 162.698 244.66 163.125 244.309 163.65C243.959 164.176 243.748 164.782 243.698 165.412C243.526 166.874 244 168.334 244.608 169.644C245.863 172.31 247.935 174.506 250.522 175.916C250.643 175.981 250.782 176.002 250.917 175.974C251.051 175.945 251.17 175.87 251.254 175.762C251.338 175.653 251.38 175.518 251.374 175.381C251.367 175.244 251.311 175.114 251.217 175.015C250.66 174.505 249.975 174.157 249.236 174.005C248.496 173.854 247.73 173.906 247.017 174.155C246.262 174.405 245.576 174.831 245.019 175.399C244.461 175.967 244.048 176.66 243.812 177.42C242.544 181.187 244.929 184.753 247.129 187.598C248.139 188.905 250.078 190.655 251.788 189.449C251.917 189.37 252.009 189.244 252.048 189.098C252.086 188.952 252.067 188.797 251.994 188.665C250.234 185.347 245.417 185.057 242.698 187.294C239.217 190.158 239.293 195.32 241.03 199.093C242.043 201.294 243.577 203.226 245.2 205.007C246.737 206.691 248.39 208.265 250.146 209.719C257.741 216.015 267 219.97 276.799 221.103C277.531 221.187 277.525 220.039 276.799 219.956L276.799 219.956Z" fill="#1D1D32"/>
<path d="M272.269 180.204C273.783 182.13 275.525 183.867 277.455 185.377C277.564 185.48 277.709 185.538 277.86 185.538C278.011 185.538 278.156 185.48 278.266 185.377C278.372 185.269 278.432 185.123 278.432 184.971C278.432 184.82 278.372 184.674 278.266 184.566C276.336 183.056 274.595 181.319 273.08 179.392C272.972 179.285 272.826 179.226 272.674 179.226C272.523 179.226 272.377 179.285 272.269 179.392C272.165 179.502 272.106 179.647 272.106 179.798C272.106 179.949 272.165 180.094 272.269 180.204H272.269Z" fill="#1D1D32"/>
<path d="M283.883 173.201C282.969 173.913 282.032 174.595 281.072 175.246C280.604 175.565 280.132 175.876 279.654 176.18C279.399 176.342 279.143 176.502 278.886 176.66C278.747 176.72 278.616 176.799 278.499 176.895C278.54 176.884 278.524 176.888 278.453 176.907C278.509 176.901 278.567 176.906 278.621 176.921L278.827 177.127L278.852 177.169C278.811 177.023 278.714 176.899 278.582 176.824C278.45 176.749 278.293 176.729 278.147 176.768C278.002 176.812 277.88 176.91 277.805 177.041C277.731 177.173 277.709 177.328 277.746 177.474C277.779 177.626 277.86 177.764 277.979 177.865C278.097 177.967 278.245 178.026 278.401 178.035C278.713 178.048 279.02 177.954 279.272 177.769C279.901 177.386 280.522 176.991 281.135 176.584C282.355 175.774 283.539 174.912 284.694 174.013C284.801 173.905 284.861 173.759 284.861 173.607C284.861 173.455 284.801 173.309 284.694 173.201C284.585 173.097 284.44 173.039 284.289 173.039C284.138 173.039 283.992 173.097 283.883 173.201L283.883 173.201Z" fill="#1D1D32"/>
<path d="M286.711 152.912V153.232C286.715 153.383 286.777 153.526 286.884 153.633C286.991 153.74 287.134 153.802 287.285 153.805L287.438 153.785C287.533 153.759 287.621 153.708 287.691 153.637L287.781 153.521C287.832 153.434 287.859 153.334 287.859 153.232V152.912C287.855 152.761 287.793 152.617 287.686 152.51C287.58 152.404 287.436 152.342 287.285 152.338L287.133 152.358C287.037 152.385 286.95 152.436 286.879 152.506L286.79 152.622C286.738 152.71 286.711 152.81 286.711 152.912Z" fill="#1D1D32"/>
<path d="M292.514 153.165C292.663 153.16 292.804 153.097 292.907 152.99C293.01 152.883 293.068 152.74 293.068 152.591C293.068 152.443 293.01 152.3 292.907 152.193C292.804 152.086 292.663 152.023 292.514 152.018C292.366 152.023 292.225 152.086 292.121 152.193C292.018 152.3 291.96 152.443 291.96 152.591C291.96 152.74 292.018 152.883 292.121 152.99C292.225 153.097 292.366 153.16 292.514 153.165Z" fill="#1D1D32"/>
<path d="M261.884 195.002C262.033 194.996 262.174 194.934 262.277 194.827C262.38 194.72 262.438 194.577 262.438 194.428C262.438 194.279 262.38 194.136 262.277 194.029C262.174 193.922 262.033 193.859 261.884 193.854C261.736 193.859 261.595 193.922 261.492 194.029C261.388 194.136 261.331 194.279 261.331 194.428C261.331 194.577 261.388 194.72 261.492 194.827C261.595 194.934 261.736 194.996 261.884 195.002Z" fill="#1D1D32"/>
<path d="M265.406 191.907C265.555 191.901 265.696 191.839 265.799 191.732C265.902 191.625 265.96 191.482 265.96 191.333C265.96 191.184 265.902 191.041 265.799 190.934C265.696 190.827 265.555 190.764 265.406 190.759C265.258 190.764 265.117 190.827 265.014 190.934C264.91 191.041 264.853 191.184 264.853 191.333C264.853 191.482 264.91 191.625 265.014 191.732C265.117 191.839 265.258 191.901 265.406 191.907Z" fill="#1D1D32"/>
<path d="M266.443 198.018L266.976 197.698C267.075 197.642 267.154 197.558 267.203 197.455C267.252 197.353 267.269 197.238 267.25 197.127C267.247 197.051 267.223 196.977 267.182 196.913L267.092 196.797C267.022 196.727 266.935 196.676 266.839 196.65L266.686 196.629C266.585 196.629 266.485 196.656 266.397 196.707L265.863 197.028C265.765 197.083 265.685 197.168 265.636 197.27C265.587 197.372 265.571 197.487 265.589 197.599C265.593 197.675 265.616 197.749 265.658 197.812L265.747 197.929C265.817 197.999 265.905 198.05 266 198.076L266.153 198.097C266.255 198.097 266.355 198.07 266.442 198.018H266.443Z" fill="#1D1D32"/>
<path d="M285.709 188.69C283.223 190.979 280.535 193.038 277.677 194.841C277.054 195.234 277.63 196.227 278.256 195.832C281.197 193.976 283.962 191.857 286.52 189.501C287.064 189 286.251 188.19 285.709 188.69H285.709Z" fill="#1D1D32"/>
<path d="M69.716 268.633C71.2741 275.208 73.8795 281.489 77.4324 287.237C78.435 288.857 79.511 290.428 80.6603 291.95C81.0992 292.533 82.0958 291.961 81.651 291.371C77.626 286.035 74.4898 280.085 72.3636 273.748C71.7677 271.966 71.2539 270.159 70.8223 268.328C70.6523 267.61 69.5458 267.914 69.716 268.633Z" fill="white"/>
<path d="M76.8106 273.801C75.737 276.017 74.8611 278.324 74.1929 280.694C74.1584 280.839 74.1814 280.991 74.2571 281.119C74.3328 281.247 74.4553 281.341 74.5988 281.381C74.7423 281.42 74.8955 281.402 75.0262 281.331C75.1568 281.26 75.2547 281.141 75.2992 280.999C75.9369 278.723 76.7741 276.509 77.8012 274.381C78.1212 273.719 77.1322 273.136 76.8106 273.801Z" fill="white"/>
<path d="M73.5088 286.056C74.1049 285.996 74.7031 285.961 75.3022 285.954C75.6016 285.951 75.901 285.954 76.2003 285.964C76.3199 285.968 76.4417 285.967 76.5604 285.983C76.4348 285.966 76.5803 285.994 76.6078 286.003C76.5478 285.974 76.5464 285.975 76.6037 286.006C76.5516 285.965 76.5484 285.968 76.5942 286.015C76.7021 286.122 76.8479 286.182 76.9998 286.182C77.1518 286.182 77.2975 286.122 77.4055 286.015C77.5095 285.906 77.5676 285.76 77.5676 285.609C77.5676 285.458 77.5095 285.313 77.4055 285.204C77.2813 285.08 77.1332 284.983 76.9704 284.918C76.8075 284.854 76.6332 284.822 76.458 284.827C76.1427 284.807 75.8252 284.805 75.5093 284.805C74.8411 284.806 74.1736 284.842 73.5087 284.909C73.3576 284.912 73.2137 284.974 73.1068 285.081C72.9999 285.187 72.9384 285.331 72.9351 285.483C72.9367 285.634 72.9976 285.779 73.1048 285.886C73.2121 285.994 73.3571 286.055 73.5087 286.056L73.5088 286.056Z" fill="white"/>
<path d="M80.8622 286.89C80.4776 287.8 80.1267 288.723 79.8209 289.662C79.7817 289.809 79.8017 289.965 79.8767 290.097C79.9516 290.229 80.0755 290.326 80.2215 290.368C80.3681 290.405 80.5234 290.384 80.6548 290.309C80.7863 290.235 80.8839 290.112 80.9272 289.967C81.0697 289.529 81.2211 289.095 81.3814 288.663C81.4588 288.455 81.5383 288.248 81.6198 288.042C81.6638 287.931 81.7083 287.821 81.7535 287.71C81.7729 287.663 81.7923 287.615 81.8119 287.568C81.8201 287.548 81.902 287.353 81.8529 287.469C81.9253 287.334 81.9459 287.177 81.9107 287.027C81.8807 286.918 81.8193 286.821 81.7341 286.747C81.649 286.673 81.5439 286.625 81.432 286.611C81.3201 286.596 81.2063 286.615 81.105 286.665C81.0036 286.714 80.9192 286.793 80.8622 286.89V286.89Z" fill="white"/>
<path d="M59.2461 285.845C60.3687 288.203 61.634 290.491 63.0348 292.696C63.4296 293.318 64.4228 292.743 64.0254 292.117C62.6246 289.912 61.3594 287.624 60.2367 285.265C59.9195 284.599 58.93 285.181 59.2461 285.845Z" fill="white"/>
<path d="M58.496 289.684C59.4709 289.835 60.438 290.027 61.3972 290.26C61.4698 290.28 61.5457 290.286 61.6205 290.276C61.6953 290.267 61.7675 290.243 61.833 290.206C61.8985 290.169 61.9561 290.119 62.0024 290.06C62.0487 290 62.0828 289.932 62.1029 289.859C62.1229 289.787 62.1284 289.711 62.1191 289.636C62.1098 289.561 62.0859 289.489 62.0487 289.424C62.0115 289.358 61.9617 289.301 61.9023 289.254C61.8428 289.208 61.7748 289.174 61.7022 289.154C60.7437 288.921 59.7766 288.729 58.801 288.578C58.6544 288.541 58.4995 288.563 58.3682 288.637C58.2368 288.712 58.1392 288.834 58.0954 288.979C58.0567 289.125 58.0769 289.281 58.1518 289.413C58.2267 289.545 58.3503 289.642 58.496 289.684Z" fill="white"/>
<path d="M64.8379 280.484V280.413C64.8338 280.262 64.7721 280.119 64.6654 280.012C64.5587 279.905 64.4151 279.844 64.2642 279.84L64.1116 279.86C64.0158 279.886 63.9286 279.937 63.8585 280.008L63.7687 280.124C63.7173 280.211 63.6903 280.311 63.6904 280.413V280.484C63.6944 280.635 63.7561 280.779 63.8628 280.885C63.9696 280.992 64.1132 281.054 64.2641 281.058L64.4167 281.037C64.5124 281.011 64.5997 280.96 64.6698 280.89L64.7595 280.774C64.811 280.686 64.838 280.586 64.8379 280.484Z" fill="white"/>
<path d="M66.6124 279.35C66.7612 279.345 66.9021 279.282 67.0055 279.175C67.109 279.068 67.1668 278.925 67.1668 278.777C67.1668 278.628 67.109 278.485 67.0055 278.378C66.9021 278.271 66.7612 278.208 66.6124 278.203C66.4637 278.208 66.3227 278.271 66.2193 278.378C66.1159 278.485 66.0581 278.628 66.0581 278.777C66.0581 278.925 66.1159 279.068 66.2193 279.175C66.3227 279.282 66.4637 279.345 66.6124 279.35Z" fill="white"/>
<path d="M66.8966 283.833C67.0454 283.828 67.1863 283.765 67.2897 283.658C67.3931 283.551 67.451 283.408 67.451 283.259C67.451 283.11 67.3931 282.967 67.2897 282.86C67.1863 282.753 67.0454 282.691 66.8966 282.685C66.7479 282.691 66.6069 282.753 66.5035 282.86C66.4001 282.967 66.3423 283.11 66.3423 283.259C66.3423 283.408 66.4001 283.551 66.5035 283.658C66.6069 283.765 66.7479 283.828 66.8966 283.833Z" fill="white"/>
<path d="M97.9181 286.323C98.0668 286.318 98.2078 286.255 98.3112 286.148C98.4146 286.041 98.4724 285.898 98.4724 285.749C98.4724 285.601 98.4146 285.458 98.3112 285.35C98.2078 285.243 98.0668 285.181 97.9181 285.176C97.7694 285.181 97.6284 285.243 97.525 285.35C97.4216 285.458 97.3638 285.601 97.3638 285.749C97.3638 285.898 97.4216 286.041 97.525 286.148C97.6284 286.255 97.7694 286.318 97.9181 286.323Z" fill="white"/>
<path d="M100.973 284.184L101.044 284.896C101.048 285.046 101.11 285.19 101.217 285.297C101.323 285.403 101.467 285.465 101.618 285.469C101.77 285.469 101.915 285.408 102.023 285.301L102.113 285.185C102.165 285.097 102.192 284.997 102.191 284.896L102.12 284.184C102.116 284.033 102.055 283.89 101.948 283.783C101.841 283.676 101.698 283.614 101.547 283.61C101.395 283.611 101.249 283.671 101.141 283.778L101.051 283.895C101 283.982 100.973 284.082 100.973 284.184Z" fill="white"/>
<path d="M102.045 290.307C102.194 290.302 102.334 290.239 102.438 290.132C102.541 290.025 102.599 289.883 102.599 289.734C102.599 289.585 102.541 289.442 102.438 289.335C102.334 289.228 102.194 289.165 102.045 289.16C101.896 289.165 101.756 289.228 101.652 289.335C101.549 289.442 101.491 289.585 101.491 289.734C101.491 289.883 101.549 290.025 101.652 290.132C101.756 290.239 101.896 290.302 102.045 290.307Z" fill="white"/>
<path d="M3.70279 258.907C28.2472 251.871 41.1429 227.303 61.4548 213.759C72.3592 206.488 85.7726 201.938 98.5725 206.909C110.501 211.541 118.522 222.178 127.813 230.428C132.446 234.542 137.562 238.286 143.318 240.664C148.931 243.049 155.165 243.556 161.09 242.108C162.911 241.677 164.744 241.197 166.63 241.226C168.466 241.254 170.177 241.87 171.882 242.491C174.891 243.586 177.825 244.238 181.042 243.933C187.557 243.316 193.303 239.893 198.53 236.19C204.149 232.21 209.592 227.899 216.284 225.874C222.972 223.85 230.163 223.868 236.975 225.248C243.906 226.652 250.465 229.468 256.632 232.878C262.698 236.232 268.188 240.549 274.285 243.823C276.888 245.221 279.677 246.358 282.62 246.764C285.819 247.205 288.941 246.629 292.028 245.797C295.29 244.918 298.52 243.823 301.925 243.696C304.548 243.622 307.164 243.994 309.662 244.794C319.878 247.962 327.783 255.897 337.553 260.047C339.959 261.087 342.482 261.833 345.066 262.267C345.789 262.384 346.1 261.279 345.371 261.161C334.365 259.379 325.941 251.358 316.338 246.373C312.019 244.131 307.302 242.461 302.379 242.536C295.667 242.639 289.476 246.595 282.698 245.618C275.883 244.636 270.221 239.93 264.599 236.321C258.788 232.592 252.726 229.201 246.253 226.76C233.968 222.127 219.955 221.408 208.289 228.138C202.361 231.558 197.269 236.266 191.211 239.474C188.062 241.142 184.612 242.447 181.042 242.786C177.446 243.127 174.423 242.134 171.082 240.985C167.978 239.917 165.15 239.988 161.98 240.717C158.527 241.51 155.234 242.116 151.678 241.72C144.948 240.97 138.778 237.56 133.436 233.563C123.409 226.06 115.931 215.54 105.171 208.948C100.059 205.815 94.3321 203.844 88.3137 203.624C82.2212 203.402 76.2103 204.918 70.6583 207.348C58.7464 212.564 49.3292 221.624 40.3738 230.797C31.818 239.562 23.114 248.756 12.0656 254.388C9.29253 255.801 6.38976 256.944 3.39749 257.8C2.68902 258.003 2.99024 259.111 3.70251 258.907L3.70279 258.907Z" fill="#1D1D32"/>
<path d="M246.637 293.954C247.477 289.401 249.517 285.154 252.545 281.652C254.004 279.975 255.758 278.15 257.883 277.354C259.846 276.619 262.398 276.985 263.248 279.147C264.263 281.726 262.636 284.327 261.3 286.436L262.349 286.878C262.642 286.01 263.039 285.18 263.532 284.408C263.962 283.647 264.554 282.992 265.267 282.487C265.784 282.167 266.512 281.955 266.979 282.463C267.214 282.718 267.513 283.321 267.125 283.576L267.91 284.361C270.701 277.799 275.067 271.512 281.502 268.107C284.188 266.685 287.886 265.573 290.756 267.142C292.306 267.989 293.123 269.531 293.489 271.21C293.817 272.946 293.932 274.716 293.83 276.481C293.715 279.94 292.903 283.926 289.784 285.936L290.569 286.721C291.761 284.086 293.875 281.978 296.513 280.793C297.874 280.14 299.375 279.83 300.884 279.889C301.611 279.925 302.303 280.21 302.847 280.695C303.39 281.179 303.751 281.835 303.87 282.554C304.277 284.456 303.367 286.344 302.574 288.018C302.314 288.566 303.017 289.239 303.475 288.713C304.438 287.606 305.592 286.216 307.139 285.989C308.185 285.836 309.862 286.628 309.62 287.897C309.506 288.492 310.367 288.965 310.668 288.339C311.298 287.106 312.27 286.081 313.467 285.386C314.664 284.69 316.036 284.354 317.42 284.418C320.246 284.538 322.533 286.595 323.364 289.239C323.85 290.733 323.81 292.348 323.25 293.816C322.983 294.505 324.092 294.803 324.357 294.121C325.516 291.139 324.565 287.557 322.293 285.356C319.91 283.047 316.368 282.727 313.427 284.113C311.799 284.867 310.476 286.154 309.678 287.76L310.726 288.202C311.085 286.325 309.328 284.907 307.579 284.826C305.516 284.73 303.899 286.482 302.664 287.902L303.565 288.597C304.39 286.854 305.282 284.967 305.088 282.985C304.919 281.263 304.02 279.679 302.348 279.043C300.731 278.428 298.82 278.763 297.225 279.293C295.662 279.818 294.213 280.632 292.953 281.695C291.508 282.905 290.355 284.425 289.578 286.142C289.364 286.62 289.834 287.268 290.363 286.927C293.377 284.985 294.534 281.475 294.874 278.067C295.051 276.25 295.044 274.419 294.855 272.603C294.655 270.665 294.157 268.68 292.764 267.239C290.257 264.647 286.117 264.97 283.018 266.154C279.49 267.501 276.366 269.929 273.839 272.703C270.928 275.982 268.588 279.727 266.919 283.782C266.718 284.254 267.169 284.92 267.704 284.567C268.511 284.035 268.612 283.071 268.206 282.242C267.998 281.808 267.65 281.455 267.22 281.24C266.789 281.024 266.298 280.958 265.826 281.052C264.65 281.251 263.748 282.164 263.062 283.078C262.274 284.139 261.66 285.319 261.243 286.573C261.027 287.208 261.954 287.548 262.291 287.015C263.68 284.821 265.072 282.423 264.595 279.725C264.16 277.259 262.005 275.744 259.553 275.847C256.917 275.958 254.744 277.742 252.961 279.525C249.12 283.379 246.531 288.301 245.531 293.649C245.397 294.37 246.502 294.68 246.637 293.954L246.637 293.954Z" fill="#1D1D32"/>
<path d="M125.88 242.648C123.429 241.249 121.331 239.301 119.45 237.198C118.394 236.017 117.384 234.758 116.794 233.288C116.204 231.819 116.077 230.098 116.775 228.676C117.473 227.255 119.114 226.257 120.661 226.595C122.501 226.997 123.514 228.925 124.281 230.644C124.537 229.533 124.36 228.371 124.442 227.234C124.523 226.096 124.974 224.854 126.012 224.38C127.007 223.926 128.24 224.368 128.968 225.185C129.696 226.001 130.006 227.108 130.161 228.191C130.853 233.012 128.922 237.788 126.904 242.221" fill="#1D1D32"/>
<path d="M215.864 224.983C214.517 222.686 213.955 220.013 214.263 217.369C214.452 215.775 215.125 214.035 216.613 213.434C217.269 213.169 218.107 213.203 218.587 213.723C218.805 213.988 218.958 214.299 219.035 214.634C219.345 215.711 219.417 216.843 219.246 217.95C219.611 216.678 219.981 215.391 220.644 214.245C221.307 213.1 222.304 212.093 223.566 211.692C223.896 211.574 224.251 211.538 224.598 211.587C225.504 211.753 226.045 212.723 226.175 213.635C226.477 215.743 225.293 217.76 224.031 219.475C221.874 222.406 219.287 225.103 216.083 226.829L215.964 226.207" fill="#1D1D32"/>
<path d="M164.109 232.618C145.153 215.631 125.535 197.706 116.479 173.918C113.309 165.581 111.549 156.775 111.272 147.861C111.123 143.009 111.424 138.095 112.81 133.443C116.384 121.443 127.662 112.137 140.122 110.906C152.582 109.676 165.462 116.596 171.315 127.664C173.103 131.047 174.274 135.074 173.01 138.686C170.508 132.321 175.018 125.348 180.178 120.859C186.222 115.602 193.66 111.736 201.621 110.846C209.582 109.955 218.051 112.274 223.803 117.849C226.788 120.742 228.965 124.39 230.555 128.231C233.467 135.296 234.468 143.002 233.458 150.576C232.766 155.707 231.158 160.677 229.173 165.458C217.176 194.36 191.994 215.733 165.458 232.318" fill="#1D1D32"/>
<path d="M164.295 232.432C154.285 223.462 144.271 214.411 135.513 204.185C126.696 193.892 119.221 182.294 115.151 169.282C112.835 161.896 111.606 154.213 111.505 146.473C111.423 139.51 112.518 132.557 116.181 126.531C122.38 116.333 134.234 109.929 146.204 111.198C152.196 111.834 157.993 114.244 162.742 117.941C165.135 119.795 167.248 121.986 169.015 124.444C170.928 127.124 172.562 130.19 173.109 133.467C173.419 135.186 173.298 136.955 172.757 138.616H173.264C170.755 132.057 175.495 125.336 180.219 121.172C185.457 116.555 191.812 113.005 198.683 111.58C205.286 110.21 212.384 110.98 218.355 114.203C224.731 117.645 228.774 123.764 231.131 130.471C233.673 137.734 234.241 145.541 232.777 153.096C231.391 160.229 228.484 167.072 225.116 173.482C222.031 179.319 218.435 184.871 214.372 190.074C210.286 195.3 205.834 200.228 201.049 204.821C196.243 209.44 191.188 213.791 185.905 217.855C180.59 221.964 175.079 225.818 169.442 229.471C168.077 230.356 166.705 231.229 165.326 232.091C165.039 232.27 165.303 232.725 165.591 232.545C171.434 228.89 177.159 225.043 182.697 220.938C188.218 216.867 193.52 212.506 198.578 207.873C203.625 203.255 208.341 198.29 212.694 193.013C216.965 187.835 220.779 182.296 224.094 176.46C227.637 170.174 230.71 163.454 232.546 156.459C234.522 148.931 234.629 141.037 232.617 133.502C230.781 126.628 227.305 119.801 221.446 115.528C216.042 111.587 209.104 109.953 202.483 110.499C195.429 111.081 188.728 114.037 183.07 118.208C177.944 121.985 172.509 127.424 172.061 134.164C171.958 135.727 172.195 137.294 172.757 138.756C172.774 138.81 172.807 138.857 172.853 138.891C172.899 138.924 172.954 138.942 173.01 138.942C173.067 138.942 173.122 138.924 173.168 138.891C173.213 138.857 173.247 138.81 173.264 138.756C174.387 135.423 173.574 131.864 172.147 128.756C170.84 125.965 169.103 123.396 167 121.143C162.854 116.68 157.569 113.433 151.715 111.749C145.884 110.072 139.654 110.086 133.867 111.943C128.185 113.793 123.104 117.134 119.154 121.619C114.871 126.475 112.284 132.383 111.41 138.786C110.886 142.626 110.885 146.527 111.127 150.39C111.371 154.281 111.897 158.15 112.699 161.965C114.23 169.155 116.714 176.108 120.087 182.639C123.182 188.668 126.954 194.328 131.128 199.661C135.402 205.124 140.098 210.245 144.995 215.154C149.9 220.071 155.01 224.778 160.167 229.429C161.417 230.556 162.669 231.681 163.923 232.804C164.174 233.029 164.547 232.658 164.295 232.432H164.295Z" fill="#1D1D32"/>
<path d="M124.961 241.545C123.283 240.559 121.737 239.367 120.358 237.994C119.665 237.319 119.001 236.612 118.362 235.885C117.701 235.156 117.109 234.369 116.593 233.531C115.645 231.935 115.101 229.891 115.869 228.109C116.494 226.657 118.149 225.561 119.746 226.024C121.458 226.521 122.335 228.407 123.002 229.9C123.095 230.107 123.436 230.047 123.483 229.838C123.697 228.87 123.616 227.885 123.63 226.903C123.642 226.137 123.739 225.352 124.118 224.672C124.462 224.055 125.039 223.603 125.767 223.585C126.14 223.588 126.508 223.67 126.847 223.827C127.186 223.984 127.487 224.211 127.731 224.494C128.3 225.13 128.586 225.968 128.754 226.79C128.931 227.705 129.01 228.636 128.988 229.567C128.962 231.458 128.584 233.323 128.034 235.126C127.396 237.215 126.528 239.225 125.625 241.212C125.486 241.517 125.939 241.785 126.079 241.477C127.754 237.795 129.388 233.917 129.509 229.813C129.542 228.827 129.473 227.841 129.303 226.869C129.143 225.982 128.856 225.092 128.304 224.369C127.802 223.691 127.056 223.233 126.224 223.091C125.831 223.027 125.427 223.062 125.051 223.193C124.674 223.324 124.336 223.547 124.067 223.841C123.475 224.496 123.215 225.387 123.136 226.25C123.03 227.397 123.227 228.563 122.976 229.698L123.456 229.635C122.797 228.162 121.969 226.462 120.435 225.729C118.779 224.939 116.891 225.668 115.846 227.093C114.653 228.717 114.831 230.967 115.592 232.729C116.411 234.627 117.881 236.213 119.303 237.68C120.909 239.337 122.687 240.848 124.695 241.998C124.989 242.167 125.254 241.713 124.96 241.545L124.961 241.545Z" fill="#1D1D32"/>
<path d="M116.915 214.235C115.816 213.91 114.83 213.282 114.071 212.424C113.312 211.565 112.809 210.51 112.621 209.38C112.469 208.372 112.789 207.076 113.788 206.875C114.386 206.755 114.998 207.112 115.359 207.604C115.719 208.096 115.88 208.702 116.033 209.292C115.877 208.426 115.954 207.533 116.256 206.707C116.453 206.168 116.832 205.605 117.403 205.551C118.264 205.47 118.735 206.536 118.823 207.396C119.048 209.692 118.483 211.997 117.221 213.928" fill="#1D1D32"/>
<path d="M116.985 213.982C116.196 213.747 115.465 213.348 114.839 212.813C114.214 212.277 113.708 211.616 113.354 210.872C113.018 210.175 112.791 209.37 112.862 208.592C112.919 207.965 113.232 207.163 113.962 207.116C114.446 207.085 114.902 207.408 115.17 207.79C115.497 208.256 115.638 208.818 115.779 209.362C115.866 209.694 116.344 209.55 116.286 209.222C116.131 208.332 116.209 207.297 116.639 206.488C116.797 206.189 117.043 205.862 117.404 205.814C117.545 205.804 117.686 205.832 117.812 205.896C117.939 205.959 118.046 206.056 118.122 206.175C118.573 206.773 118.604 207.592 118.61 208.309C118.623 210.257 118.061 212.165 116.994 213.795C116.809 214.079 117.264 214.343 117.448 214.061C118.585 212.312 119.172 210.263 119.133 208.178C119.116 207.327 119.024 206.369 118.417 205.712C118.292 205.569 118.135 205.456 117.959 205.383C117.784 205.31 117.594 205.277 117.404 205.288C117.193 205.315 116.99 205.387 116.81 205.5C116.63 205.613 116.476 205.763 116.36 205.941C116.049 206.411 115.848 206.945 115.772 207.504C115.668 208.119 115.67 208.747 115.779 209.362L116.286 209.222C116.019 208.193 115.634 207.033 114.516 206.668C114.297 206.595 114.065 206.573 113.837 206.603C113.609 206.633 113.391 206.715 113.199 206.842C112.867 207.086 112.62 207.43 112.494 207.823C112.19 208.677 112.328 209.628 112.621 210.465C112.936 211.36 113.445 212.175 114.111 212.852C114.866 213.624 115.808 214.188 116.845 214.489C117.171 214.582 117.31 214.075 116.985 213.982L116.985 213.982Z" fill="#1D1D32"/>
<path d="M215.039 223.973C213.737 221.745 213.184 219.157 213.462 216.591C213.574 215.582 213.864 214.52 214.495 213.705C215.062 212.973 216.201 212.295 217.113 212.839C217.374 213.015 217.566 213.278 217.653 213.581C217.772 213.933 217.862 214.294 217.921 214.66C218.052 215.435 218.059 216.226 217.941 217.004C217.892 217.33 218.353 217.478 218.448 217.144C218.966 215.334 219.519 213.415 220.928 212.079C221.534 211.505 222.403 210.942 223.27 210.948C224.08 210.954 224.582 211.699 224.781 212.406C225.295 214.236 224.321 216.159 223.333 217.641C222.295 219.186 221.115 220.63 219.808 221.955C218.368 223.449 216.714 224.72 214.899 225.725L215.285 225.882L215.166 225.261C215.102 224.929 214.595 225.069 214.659 225.4L214.778 226.022C214.789 226.06 214.809 226.096 214.836 226.126C214.863 226.156 214.896 226.179 214.933 226.194C214.97 226.209 215.01 226.216 215.05 226.213C215.09 226.21 215.129 226.199 215.164 226.179C216.888 225.227 218.469 224.038 219.861 222.645C221.277 221.248 222.553 219.718 223.673 218.074C224.776 216.459 225.787 214.436 225.328 212.424C225.146 211.628 224.666 210.821 223.868 210.526C222.973 210.196 221.906 210.68 221.179 211.197C219.27 212.553 218.556 214.856 217.941 217.004L218.448 217.144C218.565 216.392 218.576 215.627 218.48 214.872C218.391 214.19 218.264 213.377 217.844 212.811C217.078 211.779 215.584 212.067 214.698 212.761C213.786 213.474 213.302 214.621 213.071 215.726C212.812 217.063 212.791 218.435 213.009 219.779C213.245 221.352 213.78 222.866 214.585 224.239C214.621 224.296 214.679 224.337 214.745 224.353C214.811 224.37 214.881 224.359 214.94 224.325C214.999 224.291 215.042 224.235 215.061 224.169C215.079 224.103 215.071 224.033 215.039 223.973H215.039Z" fill="#1D1D32"/>
<path d="M223.423 197.437C222.563 196.391 222.107 195.072 222.138 193.718C222.15 193.238 222.288 192.701 222.616 192.336C222.949 191.965 223.45 191.939 223.777 192.342C224.285 192.968 223.954 193.836 223.71 194.498L224.217 194.638C224.326 193.97 224.619 193.346 225.065 192.837C225.28 192.591 225.529 192.376 225.804 192.199C226.047 192.044 226.47 191.787 226.708 192.081C226.904 192.323 226.907 192.71 226.902 193.004C226.892 193.365 226.826 193.724 226.708 194.066C226.448 194.786 226.031 195.439 225.487 195.978C224.862 196.59 224.179 197.14 223.449 197.622C223.174 197.814 223.437 198.27 223.715 198.076C225.17 197.059 226.673 195.906 227.235 194.144C227.371 193.724 227.436 193.285 227.427 192.843C227.416 192.459 227.357 192.039 227.102 191.735C226.497 191.012 225.498 191.701 224.978 192.175C224.31 192.788 223.864 193.605 223.71 194.498C223.695 194.565 223.705 194.634 223.74 194.693C223.775 194.752 223.831 194.795 223.896 194.813C223.962 194.831 224.032 194.823 224.092 194.79C224.152 194.758 224.197 194.703 224.217 194.638C224.501 193.868 224.769 192.994 224.331 192.226C223.999 191.645 223.312 191.334 222.682 191.631C222.115 191.898 221.799 192.559 221.678 193.143C221.525 193.878 221.622 194.684 221.81 195.404C222.043 196.287 222.467 197.107 223.052 197.809C223.267 198.069 223.638 197.696 223.423 197.437L223.423 197.437Z" fill="#1D1D32"/>
<path d="M218.004 248.124C216.72 245.792 216.237 243.103 216.629 240.47C216.863 238.928 217.647 237.205 219.177 236.907C219.566 236.831 220.022 236.883 220.275 237.189C220.453 237.403 220.494 237.696 220.529 237.973L220.853 240.562C220.925 238.61 222.41 236.794 224.309 236.336C224.82 236.212 225.406 236.194 225.822 236.514C226.061 236.717 226.237 236.983 226.332 237.282C226.722 238.343 226.547 239.551 226.073 240.578C225.598 241.605 224.848 242.478 224.064 243.293C222.184 245.247 220.061 246.951 217.747 248.363" fill="#1D1D32"/>
<path d="M218.231 247.991C217.121 245.967 216.621 243.664 216.791 241.362C216.862 240.403 217.044 239.429 217.512 238.578C217.908 237.858 218.596 237.148 219.477 237.139C219.598 237.127 219.721 237.146 219.833 237.194C219.945 237.243 220.042 237.32 220.116 237.418C220.273 237.672 220.272 238.027 220.309 238.315L220.59 240.562C220.592 240.63 220.621 240.694 220.67 240.742C220.719 240.789 220.785 240.815 220.853 240.815C220.921 240.815 220.986 240.789 221.035 240.742C221.084 240.694 221.113 240.63 221.116 240.562C221.154 239.94 221.323 239.334 221.613 238.782C221.904 238.231 222.308 237.748 222.799 237.364C223.294 236.969 223.874 236.695 224.493 236.564C224.81 236.484 225.143 236.497 225.452 236.602C225.774 236.731 225.962 237.039 226.078 237.351C226.627 238.835 226.013 240.426 225.136 241.642C224.667 242.267 224.151 242.855 223.592 243.4C223.049 243.951 222.485 244.481 221.902 244.991C220.564 246.158 219.13 247.211 217.614 248.136C217.326 248.313 217.59 248.767 217.879 248.59C219.345 247.694 220.737 246.681 222.042 245.563C222.69 245.008 223.314 244.427 223.916 243.821C224.523 243.228 225.083 242.588 225.59 241.908C226.543 240.585 227.177 238.818 226.585 237.212C226.466 236.829 226.229 236.493 225.908 236.253C225.596 236.058 225.232 235.967 224.865 235.992C224.156 236.04 223.471 236.272 222.879 236.666C222.216 237.087 221.662 237.66 221.264 238.338C220.866 239.015 220.635 239.778 220.59 240.562H221.116L220.839 238.354C220.768 237.784 220.752 237.093 220.183 236.778C219.278 236.276 218.119 236.922 217.529 237.625C216.877 238.402 216.527 239.408 216.375 240.4C215.967 243.102 216.459 245.863 217.777 248.257C217.94 248.553 218.394 248.288 218.231 247.991L218.231 247.991Z" fill="#1D1D32"/>
<path d="M103.873 198.575C102.719 197.979 101.463 197.338 100.807 196.16C100.485 195.625 100.367 194.993 100.474 194.378C100.527 194.137 100.631 193.83 100.925 193.832C101.195 193.834 101.447 194.049 101.618 194.238C102.039 194.703 102.304 195.349 102.988 195.48C103.137 195.508 103.343 195.41 103.321 195.226C103.237 194.517 103.114 193.667 103.522 193.03C103.809 192.583 104.466 192.217 104.951 192.592C105.38 192.922 105.413 193.59 105.392 194.082C105.351 194.843 105.222 195.596 105.009 196.327C104.766 197.189 104.42 198.019 103.977 198.797C103.81 199.092 104.264 199.357 104.431 199.062C104.885 198.264 105.243 197.415 105.497 196.533C105.755 195.688 105.898 194.812 105.922 193.929C105.926 193.279 105.782 192.536 105.217 192.138C104.594 191.699 103.773 191.959 103.289 192.48C102.601 193.221 102.685 194.298 102.795 195.226L103.128 194.973C102.489 194.851 102.258 194.067 101.801 193.686C101.556 193.455 101.236 193.32 100.9 193.306C100.734 193.313 100.573 193.364 100.434 193.456C100.295 193.547 100.183 193.674 100.111 193.824C99.7918 194.46 99.868 195.273 100.117 195.918C100.39 196.601 100.832 197.202 101.402 197.667C102.069 198.225 102.838 198.631 103.607 199.029C103.907 199.184 104.174 198.73 103.873 198.575Z" fill="#1D1D32"/>
<path d="M102.634 228.528C101.095 228.387 99.6726 227.646 98.6752 226.465C98.1878 225.886 97.6981 225.072 97.8891 224.284C98.0394 223.663 98.6118 223.132 99.2766 223.364C99.975 223.608 100.384 224.441 100.668 225.066C100.79 225.334 101.263 225.139 101.149 224.863C100.786 223.983 100.766 223 101.091 222.105C101.249 221.663 101.493 221.257 101.809 220.91C102.104 220.59 102.545 220.238 103.009 220.402C103.325 220.514 103.507 220.841 103.609 221.141C103.734 221.529 103.793 221.934 103.783 222.341C103.769 223.596 103.689 224.849 103.543 226.095C103.482 226.642 103.433 227.201 103.24 227.721C103.106 228.084 102.854 228.504 102.431 228.554C102.362 228.557 102.296 228.585 102.247 228.634C102.198 228.683 102.17 228.748 102.168 228.817C102.168 228.887 102.196 228.953 102.245 229.003C102.295 229.052 102.361 229.08 102.431 229.08C103.483 228.954 103.845 227.825 103.967 226.917C104.161 225.483 104.273 224.038 104.304 222.591C104.323 221.721 104.242 220.534 103.417 220.018C102.365 219.361 101.292 220.529 100.841 221.382C100.546 221.934 100.376 222.545 100.341 223.17C100.307 223.796 100.41 224.421 100.642 225.003L101.122 224.801C100.806 224.105 100.366 223.314 99.6547 222.957C98.8813 222.57 98.0125 222.888 97.5899 223.626C97.1083 224.466 97.3617 225.459 97.8542 226.232C98.343 226.982 98.9903 227.616 99.7505 228.09C100.621 228.637 101.61 228.968 102.634 229.054C102.971 229.082 102.969 228.557 102.634 228.528L102.634 228.528Z" fill="#1D1D32"/>
<path d="M232.243 227.486C231.833 226.838 231.564 226.111 231.455 225.352C231.347 224.593 231.4 223.819 231.612 223.082C231.821 222.356 232.182 221.603 232.788 221.126C233.052 220.897 233.392 220.776 233.741 220.785C233.899 220.803 234.051 220.855 234.186 220.937C234.322 221.02 234.439 221.131 234.528 221.262C235.116 222.077 234.779 223.128 234.504 223.993C234.4 224.323 234.889 224.44 235.011 224.133C235.382 223.221 236.029 222.448 236.86 221.921C237.287 221.626 237.773 221.428 238.285 221.339C238.508 221.306 238.735 221.358 238.922 221.484C239.109 221.61 239.243 221.801 239.296 222.02C239.609 223.005 238.913 223.972 238.252 224.631C237.428 225.422 236.529 226.131 235.568 226.748C234.46 227.486 233.292 228.127 232.076 228.666L232.462 228.823C232.361 228.543 232.34 228.241 232.4 227.949C232.47 227.619 231.963 227.478 231.893 227.81C231.808 228.193 231.83 228.592 231.955 228.963C231.967 229.001 231.987 229.037 232.014 229.066C232.041 229.096 232.074 229.119 232.111 229.134C232.148 229.149 232.188 229.155 232.228 229.153C232.268 229.151 232.306 229.139 232.341 229.12C233.537 228.591 234.686 227.962 235.776 227.24C236.822 226.547 237.885 225.781 238.754 224.87C239.499 224.087 240.178 222.944 239.787 221.831C239.609 221.325 239.224 220.906 238.676 220.823C238.089 220.735 237.48 220.988 236.968 221.252C235.845 221.842 234.971 222.814 234.504 223.993L235.011 224.133C235.31 223.194 235.594 222.159 235.119 221.227C234.734 220.47 233.895 220.054 233.075 220.365C232.23 220.685 231.678 221.489 231.338 222.29C230.969 223.17 230.817 224.126 230.896 225.076C230.974 226.027 231.281 226.944 231.789 227.751C231.972 228.035 232.427 227.772 232.243 227.486L232.243 227.486Z" fill="#1D1D32"/>
<path d="M148.031 130.333C148.633 131.804 149.352 133.224 150.181 134.579C150.357 134.867 150.812 134.604 150.635 134.314C149.827 132.999 149.126 131.621 148.538 130.194C148.518 130.128 148.473 130.072 148.413 130.038C148.353 130.004 148.282 129.994 148.215 130.01C148.148 130.029 148.091 130.073 148.056 130.134C148.022 130.195 148.013 130.266 148.031 130.333H148.031Z" fill="white"/>
<path d="M153.786 128.195C154.107 129.129 154.358 130.087 154.536 131.059C154.693 131.92 154.693 132.902 155.222 133.639C155.417 133.912 155.873 133.65 155.676 133.374C155.445 133.022 155.297 132.621 155.245 132.203C155.167 131.753 155.114 131.298 155.03 130.848C154.852 129.901 154.606 128.967 154.293 128.055C154.184 127.737 153.676 127.873 153.786 128.194L153.786 128.195Z" fill="white"/>
<path d="M160.341 128.43L159.591 134.15C159.572 134.292 159.725 134.411 159.854 134.413C159.923 134.411 159.989 134.383 160.038 134.334C160.087 134.285 160.115 134.219 160.117 134.15L160.867 128.43C160.886 128.288 160.733 128.169 160.604 128.168C160.535 128.169 160.469 128.197 160.42 128.246C160.371 128.295 160.343 128.361 160.341 128.43H160.341Z" fill="white"/>
<path d="M163.767 135.238L164.72 133.698C164.755 133.638 164.764 133.566 164.747 133.499C164.729 133.432 164.686 133.374 164.626 133.338C164.566 133.305 164.494 133.296 164.427 133.313C164.36 133.331 164.303 133.374 164.266 133.433L163.313 134.973C163.278 135.034 163.269 135.105 163.287 135.172C163.304 135.239 163.347 135.297 163.407 135.333C163.468 135.367 163.539 135.376 163.606 135.358C163.673 135.34 163.731 135.298 163.767 135.238Z" fill="white"/>
<path d="M125.411 178.42C126.107 175.166 127.363 172.058 129.123 169.234C130.873 166.415 133.085 163.91 135.666 161.823C137.115 160.654 138.678 159.632 140.329 158.772C140.63 158.615 140.364 158.161 140.064 158.318C137.077 159.884 134.385 161.956 132.106 164.443C129.821 166.924 127.97 169.773 126.632 172.869C125.879 174.612 125.3 176.424 124.905 178.28C124.835 178.61 125.341 178.751 125.411 178.42V178.42Z" fill="white"/>
<path d="M122.446 171.51C123.229 169.278 124.307 167.161 125.649 165.214C126.033 164.658 126.437 164.118 126.862 163.593C127.073 163.333 126.704 162.958 126.49 163.221C124.956 165.11 123.683 167.196 122.705 169.423C122.426 170.063 122.17 170.712 121.939 171.37C121.827 171.69 122.334 171.828 122.446 171.51V171.51Z" fill="white"/>
<path d="M207.013 163.155C208.783 165.156 210.302 167.366 211.537 169.736C211.886 170.405 212.211 171.086 212.513 171.777C212.648 172.087 213.101 171.819 212.967 171.512C211.882 169.033 210.498 166.697 208.847 164.554C208.379 163.947 207.892 163.357 207.384 162.783C207.16 162.529 206.789 162.902 207.013 163.155Z" fill="white"/>
<path d="M209.268 158.552C210.821 160.152 212.237 161.88 213.499 163.719C214.761 165.559 215.867 167.5 216.806 169.524C217.336 170.668 217.81 171.835 218.227 173.027C218.338 173.344 218.846 173.207 218.734 172.887C217.233 168.606 215.019 164.609 212.184 161.068C211.383 160.065 210.535 159.102 209.64 158.18C209.403 157.937 209.032 158.309 209.268 158.552H209.268Z" fill="white"/>
<path d="M183.156 130.46C183.182 131.191 183.119 131.923 182.97 132.64C182.953 132.707 182.962 132.778 182.997 132.838C183.031 132.898 183.087 132.943 183.153 132.963C183.22 132.981 183.292 132.972 183.352 132.937C183.413 132.903 183.457 132.846 183.476 132.779C183.638 132.017 183.707 131.239 183.681 130.46C183.67 130.123 183.144 130.121 183.156 130.46Z" fill="white"/>
<path d="M190.435 127.886C189.413 129.486 188.495 131.15 187.684 132.867C187.54 133.171 187.993 133.439 188.138 133.132C188.949 131.415 189.867 129.752 190.889 128.151C191.071 127.865 190.616 127.601 190.435 127.886Z" fill="white"/>
<path d="M191.82 135.341C193.059 133.973 194.363 132.669 195.733 131.428C195.984 131.201 195.611 130.83 195.361 131.057C193.993 132.295 192.689 133.599 191.449 134.969C191.222 135.219 191.593 135.592 191.82 135.341Z" fill="white"/>
<path d="M195.585 139.984C196.628 139.325 197.524 138.458 198.217 137.438C198.252 137.378 198.262 137.306 198.244 137.239C198.227 137.171 198.183 137.114 198.123 137.078C198.063 137.043 197.991 137.033 197.923 137.051C197.856 137.069 197.798 137.112 197.763 137.173C197.119 138.118 196.287 138.92 195.32 139.53C195.034 139.71 195.298 140.165 195.585 139.984Z" fill="white"/>
<path d="M198.265 143.745L199.24 143.442C199.273 143.433 199.304 143.417 199.332 143.396C199.359 143.375 199.382 143.349 199.4 143.319C199.417 143.289 199.428 143.255 199.432 143.221C199.437 143.186 199.434 143.152 199.425 143.118C199.416 143.085 199.4 143.053 199.379 143.026C199.357 142.999 199.331 142.976 199.3 142.959C199.27 142.942 199.237 142.931 199.203 142.927C199.168 142.923 199.133 142.926 199.1 142.935L198.125 143.239C198.058 143.257 198.001 143.302 197.967 143.362C197.933 143.423 197.925 143.494 197.943 143.561C197.961 143.628 198.006 143.685 198.066 143.72C198.126 143.754 198.198 143.763 198.265 143.745H198.265Z" fill="white"/>
</svg>
