<svg width="21" height="16" viewBox="0 0 21 16" fill="none" xmlns="http://www.w3.org/2000/svg">
<path d="M13.8204 0.26001C13.6218 0.615697 13.4448 0.983029 13.2904 1.36001C11.7732 1.12006 10.2276 1.12006 8.71041 1.36001C8.556 0.983029 8.37901 0.615697 8.18041 0.26001C6.75119 0.504211 5.36181 0.941547 4.05041 1.56001C1.70535 4.9443 0.641843 9.05296 1.05041 13.15C2.57864 14.2989 4.29386 15.1751 6.12041 15.74C6.53632 15.1906 6.90751 14.6087 7.2304 14C6.63448 13.7803 6.0617 13.5023 5.52041 13.17C5.66887 13.0712 5.8093 12.9609 5.94041 12.84C7.51887 13.6003 9.24837 13.9952 11.0004 13.9952C12.7524 13.9952 14.4819 13.6003 16.0604 12.84C16.2004 12.96 16.3404 13.07 16.4804 13.17C15.9362 13.4997 15.364 13.7807 14.7704 14.01C15.0799 14.6325 15.4412 15.228 15.8504 15.79C17.6747 15.227 19.3869 14.3506 20.9104 13.2C21.3288 9.10221 20.2644 4.99019 17.9104 1.61001C16.6137 0.978747 15.2381 0.52468 13.8204 0.26001ZM7.68041 10.81C7.17999 10.7741 6.71295 10.5457 6.37733 10.1728C6.0417 9.79987 5.8636 9.31143 5.88041 8.81001C5.86107 8.30793 6.03829 7.81809 6.37442 7.44462C6.71054 7.07115 7.17907 6.84348 7.68041 6.81001C8.18175 6.84348 8.65027 7.07115 8.98639 7.44462C9.32252 7.81809 9.49974 8.30793 9.4804 8.81001C9.49974 9.31209 9.32252 9.80193 8.98639 10.1754C8.65027 10.5489 8.18175 10.7765 7.68041 10.81ZM14.3204 10.81C13.82 10.7741 13.3529 10.5457 13.0173 10.1728C12.6817 9.79987 12.5036 9.31143 12.5204 8.81001C12.5011 8.30793 12.6783 7.81809 13.0144 7.44462C13.3505 7.07115 13.8191 6.84348 14.3204 6.81001C14.8227 6.84098 15.2927 7.06791 15.6294 7.44196C15.966 7.816 16.1423 8.30726 16.1204 8.81001C16.1423 9.31276 15.966 9.80402 15.6294 10.1781C15.2927 10.5521 14.8227 10.779 14.3204 10.81Z" fill="#1D1D32"/>
</svg>
