<svg  viewBox="0 0 29 32" fill="none" xmlns="http://www.w3.org/2000/svg">
<path d="M27.8944 15.6888L27.9842 16.601C28.7429 24.3098 23.1086 31.174 15.3996 31.9323C14.9429 31.9775 14.4845 32 14.0257 32C6.27966 32 0 25.7207 0 17.9743C0 17.5155 0.0227862 17.0572 0.0676891 16.6004L0.157162 15.6882C0.787814 9.28356 4.23294 3.5729 9.43216 0.0154268C8.81357 1.28409 8.4905 2.63657 8.46237 4.07242C8.46169 4.10861 8.46136 4.14447 8.46136 4.18066C8.46136 7.24942 10.9491 9.73716 14.0179 9.73716C14.0654 9.73716 14.113 9.73649 14.1606 9.73548C17.1812 9.6564 19.5654 7.1442 19.4866 4.12399C19.4447 2.5182 19.1478 1.14333 18.5959 0C23.8077 3.55636 27.2618 9.27414 27.8932 15.6882L27.8944 15.6888Z" fill="#1D1D32"/>
</svg>
