<svg width="134" height="32" viewBox="0 0 134 32" fill="none" xmlns="http://www.w3.org/2000/svg">
<circle cx="16.1392" cy="4.56643" r="4.56643" fill="#1D1D32"/>
<circle cx="26.0266" cy="10.2718" r="4.56643" transform="rotate(59.8498 26.0266 10.2718)" fill="#1D1D32"/>
<circle cx="26.0068" cy="21.7276" r="4.56643" transform="rotate(120.15 26.0068 21.7276)" fill="#1D1D32"/>
<circle cx="16.0495" cy="27.3985" r="4.56643" transform="rotate(-179.558 16.0495 27.3985)" fill="#1D1D32"/>
<circle cx="6.22984" cy="21.6547" r="4.56643" transform="rotate(-119.728 6.22984 21.6547)" fill="#1D1D32"/>
<circle cx="6.25424" cy="10.2081" r="4.56643" transform="rotate(-59.4279 6.25424 10.2081)" fill="#1D1D32"/>
<path d="M42.7454 23.0457C44.5258 23.0457 46.0181 22.466 47.013 21.4382L46.4109 19.2773C45.416 20.2787 44.2378 20.8321 42.9549 20.8321C40.7556 20.8321 39.5251 19.3036 39.5251 16.4575C39.5251 13.6377 40.7818 12.0566 43.0334 12.0566C44.2378 12.0566 45.3636 12.5309 46.1752 13.4006L46.8036 11.2396C45.9396 10.37 44.4996 9.86927 42.7716 9.86927C39.0538 9.86927 36.9331 12.241 36.9331 16.4575C36.9331 20.674 39.0538 23.0457 42.7454 23.0457Z" fill="#1D1D32"/>
<path d="M55.5419 9.86927C53.8663 9.86927 52.3477 10.6862 51.1696 11.9775L50.9339 10.1855H48.8656V22.7295H51.4314V13.8222C52.3216 12.8208 53.4736 12.162 54.5208 12.162C55.699 12.162 56.5368 12.9526 56.5368 14.1912V22.7295H59.1026V13.3215C59.1026 11.1869 57.715 9.86927 55.5419 9.86927Z" fill="#1D1D32"/>
<path d="M67.0095 23.0457C68.9731 23.0457 70.6487 22.4923 71.7745 21.4646L71.4865 19.3563C70.4392 20.2787 69.0254 20.8321 67.4545 20.8321C65.1767 20.8321 63.8415 19.5145 63.8415 16.8792H72.0363C72.0887 16.5366 72.0887 16.0622 72.0887 15.825C72.0887 12.0039 70.4131 9.86927 66.9571 9.86927C63.344 9.86927 61.1971 12.241 61.1971 16.4575C61.1971 20.674 63.3178 23.0457 67.0095 23.0457ZM63.8677 15.2453C64.0247 13.3742 64.9673 12.0566 66.8785 12.0566C68.5542 12.0566 69.4443 13.2161 69.4443 15.2453H63.8677Z" fill="#1D1D32"/>
<path d="M79.5427 20.1206C77.5005 19.9625 76.7936 19.7516 76.7936 19.2509C76.7936 18.8293 77.2125 18.5657 78.0241 18.5657L78.0765 18.5394C78.286 18.5657 78.5216 18.5657 78.7572 18.5657C81.9252 18.5657 83.7579 16.9582 83.7579 14.2175C83.7579 13.4269 83.6008 12.7417 83.3128 12.162L84.9361 11.6876L84.4386 9.84292L82.3179 10.897C81.4801 10.2382 80.2758 9.86927 78.7572 9.86927C75.6154 9.86927 73.7565 11.4768 73.7565 14.2175C73.7565 16.0095 74.542 17.3008 75.982 18.0123C75.0918 18.3022 74.542 18.9083 74.542 19.6726C74.542 20.3841 74.8823 20.9112 75.5369 21.1483C73.9922 21.649 72.7093 22.5977 72.7093 24.4952C72.7093 26.7879 74.8038 28.0001 78.574 28.0001C82.6845 28.0001 84.8314 26.6297 84.8314 23.9417C84.8314 21.201 82.3179 20.3314 79.5427 20.1206ZM78.7834 11.5822C80.4852 11.5822 81.3754 12.5573 81.3754 14.1912C81.3754 15.825 80.4067 16.8001 78.7834 16.8001C77.1601 16.8001 76.1914 15.825 76.1914 14.1912C76.1914 12.5573 77.0816 11.5822 78.7834 11.5822ZM78.9405 26.0236C76.4532 26.0236 74.9085 25.2857 74.9085 23.9417C74.9085 22.9403 75.7987 22.1761 77.422 22.018C80.3543 22.5977 82.3179 22.7295 82.3179 24.2053C82.3179 25.3648 81.0612 26.0236 78.9405 26.0236Z" fill="#1D1D32"/>
<path d="M91.5249 9.86927C89.954 9.86927 87.9642 10.3436 86.4194 11.2133L86.9954 13.0316C88.3307 12.3728 89.7445 11.9512 91.0798 11.9512C92.6507 11.9512 93.3838 12.61 93.3838 13.7168V14.8236C88.5663 14.8236 85.8434 16.4839 85.8434 19.5145C85.8434 21.6227 87.2049 23.0457 89.378 23.0457C90.8965 23.0457 92.4674 22.3342 93.567 21.201L93.8027 22.7295H95.9495V13.9276C95.9495 11.3977 94.3001 9.86927 91.5249 9.86927ZM88.4878 19.1455C88.4878 17.3799 90.242 16.4048 93.3838 16.4048V19.6726C92.5198 20.5422 91.3678 21.0429 90.399 21.0429C89.1685 21.0429 88.4878 20.2523 88.4878 19.1455Z" fill="#1D1D32"/>
<path d="M104.148 20.5686C103.782 20.7267 103.363 20.753 102.944 20.753C102.106 20.753 101.661 20.2523 101.661 19.3563V12.3728H104.122V10.1855H101.661V5.73186H99.0952V10.1855H97.7338L97.184 12.3728H99.0952V19.4617C99.0952 21.649 100.352 22.8876 102.551 22.8876C103.31 22.8876 104.044 22.7032 104.777 22.3342L104.148 20.5686Z" fill="#1D1D32"/>
<path d="M107.677 8.63069C108.672 8.63069 109.222 8.12998 109.222 7.12857C109.222 6.12716 108.672 5.6001 107.677 5.6001C106.656 5.6001 106.106 6.12716 106.106 7.12857C106.106 8.12998 106.656 8.63069 107.677 8.63069ZM106.368 22.7295H108.934V10.1855H106.368V22.7295Z" fill="#1D1D32"/>
<path d="M119.769 10.1855L116.601 19.9097L113.302 10.1855H110.474L114.978 22.7295H117.884L122.413 10.1855H119.769Z" fill="#1D1D32"/>
<path d="M128.654 23.0457C130.617 23.0457 132.293 22.4923 133.419 21.4646L133.131 19.3563C132.084 20.2787 130.67 20.8321 129.099 20.8321C126.821 20.8321 125.486 19.5145 125.486 16.8792H133.681C133.733 16.5366 133.733 16.0622 133.733 15.825C133.733 12.0039 132.057 9.86927 128.602 9.86927C124.988 9.86927 122.842 12.241 122.842 16.4575C122.842 20.674 124.962 23.0457 128.654 23.0457ZM125.512 15.2453C125.669 13.3742 126.612 12.0566 128.523 12.0566C130.199 12.0566 131.089 13.2161 131.089 15.2453H125.512Z" fill="#1D1D32"/>
</svg>
