<svg width="198" height="76" viewBox="0 0 198 76" fill="none" xmlns="http://www.w3.org/2000/svg">
<path d="M1.59311 75H50.4069C50.8345 74.9863 51.2395 74.8223 51.5367 74.5425C51.8339 74.2627 52 73.8889 52 73.5C52 73.1111 51.8339 72.7373 51.5367 72.4575C51.2395 72.1777 50.8345 72.0137 50.4069 72H1.59311C1.16552 72.0137 0.760401 72.1777 0.463224 72.4575C0.166048 72.7373 0 73.1111 0 73.5C0 73.8889 0.166048 74.2627 0.463224 74.5425C0.760401 74.8223 1.16552 74.9863 1.59311 75Z" fill="#1D1D32"/>
<path d="M54.1641 73.6186C52.4896 71.3149 51.5192 68.582 51.3687 65.7461C51.2183 62.9103 51.8941 60.0914 53.3156 57.6262C54.7886 55.206 56.9848 53.3005 59.5994 52.1741C62.2141 51.0477 65.1175 50.7562 67.9067 51.3401C71.1361 51.9025 74.0732 53.5463 76.2276 55.9973C77.2868 57.2169 78.918 56.0965 79.0799 54.8258C79.8577 48.725 81.6856 41.0519 87.5071 37.725C91.7002 35.3288 98.3069 35.6026 100.654 40.3673C101.601 42.2911 104.447 40.6088 103.539 38.6948C100.354 31.9807 101.018 23.9363 104.324 17.3942C105.975 14.0153 108.372 11.0481 111.337 8.7126C114.302 6.37709 117.759 4.73304 121.452 3.90231C129.235 2.33603 137.328 3.87441 143.975 8.18404C151.184 12.7981 155.496 20.3908 157.553 28.496C160.011 38.1821 159.635 48.3586 159.163 58.2515C159.07 60.2099 161.846 60.3746 162.445 58.6923C164.558 52.7497 171.45 48.6554 177.747 49.9074C180.959 50.6297 183.813 52.4475 185.812 55.0436C187.81 57.6397 188.825 60.8492 188.68 64.1119C188.686 64.5495 188.864 64.9677 189.176 65.2772C189.488 65.5867 189.91 65.7631 190.351 65.7687L196.387 65.902C198.538 65.9497 198.537 62.6359 196.387 62.5883L190.351 62.455L192.022 64.1119C192.132 60.9598 191.373 57.8377 189.828 55.0808C188.283 52.3239 186.01 50.0364 183.253 48.4641C180.518 46.9773 177.415 46.2867 174.302 46.4718C171.188 46.6568 168.191 47.7099 165.654 49.5099C162.682 51.5359 160.431 54.4414 159.223 57.8116L162.505 58.2525C163.362 40.2712 163.492 18.3257 147.308 6.45174C140.167 1.27509 131.263 -0.915601 122.511 0.35095C118.358 0.991766 114.401 2.54199 110.928 4.88895C107.455 7.2359 104.553 10.3206 102.433 13.919C97.6636 21.8828 96.6372 31.9035 100.654 40.3684L103.54 38.6958C100.473 32.4692 92.0445 31.7056 86.368 34.5709C79.0067 38.2866 76.6867 47.3889 75.7384 54.8268L78.5907 53.6553C76.2422 51.1026 73.2047 49.2715 69.8384 48.3791C66.4721 47.4866 62.9183 47.5704 59.5985 48.6203C52.7085 50.824 48.3975 57.1904 48.03 64.2428C47.7952 68.1873 48.9429 72.091 51.2788 75.2922C52.5496 76.9823 55.4518 75.332 54.1643 73.6196L54.1641 73.6186Z" fill="#1D1D32"/>
</svg>
