<svg width="18" height="18" viewBox="0 0 20 20" fill="none" xmlns="http://www.w3.org/2000/svg">
<path d="M10 0C4.486 0 0 4.486 0 10C0 15.514 4.486 20 10 20C15.514 20 20 15.514 20 10C20 4.486 15.514 0 10 0ZM17.931 9H15.167C15.0436 6.81124 14.4313 4.67797 13.375 2.757C14.5992 3.32905 15.6589 4.2014 16.4554 5.29291C17.252 6.38442 17.7596 7.65965 17.931 9ZM10.53 2.027C11.565 3.391 12.957 5.807 13.157 9H7.03C7.169 6.404 8.024 3.972 9.481 2.026C9.653 2.016 9.825 2 10 2C10.179 2 10.354 2.016 10.53 2.027ZM6.688 2.727C5.704 4.618 5.136 6.762 5.03 9H2.069C2.24177 7.64784 2.75663 6.3621 3.56489 5.26442C4.37315 4.16673 5.44808 3.29339 6.688 2.727ZM2.069 11H5.043C5.179 13.379 5.708 15.478 6.599 17.23C5.38119 16.6559 4.32773 15.7842 3.53596 14.6953C2.74419 13.6064 2.23966 12.3355 2.069 11ZM9.45 17.973C8.049 16.275 7.222 13.896 7.041 11H13.154C12.946 13.773 12.037 16.196 10.551 17.972C10.369 17.984 10.187 18 10 18C9.814 18 9.633 17.984 9.45 17.973ZM13.461 17.201C14.416 15.407 14.999 13.3 15.152 11H17.93C17.7612 12.3243 17.264 13.5853 16.4834 14.6684C15.7029 15.7514 14.6639 16.622 13.461 17.201Z" fill="black"/>
</svg>
