<svg width="157" height="32" viewBox="0 0 157 32" fill="none" xmlns="http://www.w3.org/2000/svg">
<path d="M20.7055 4.56643C20.7055 7.0884 18.6611 9.13286 16.1391 9.13286C13.6171 9.13286 11.5727 7.0884 11.5727 4.56643C11.5727 2.04446 13.6171 -8.93662e-08 16.1391 -1.99605e-07C18.6611 -3.09844e-07 20.7055 2.04446 20.7055 4.56643Z" fill="white"/>
<path d="M28.3201 14.2207C26.1394 15.4874 23.3446 14.7464 22.0779 12.5656C20.8112 10.3848 21.5522 7.59006 23.733 6.32336C25.9138 5.05665 28.7085 5.79765 29.9752 7.97843C31.2419 10.1592 30.5009 12.9539 28.3201 14.2207Z" fill="white"/>
<path d="M23.713 25.6765C21.5322 24.4098 20.7912 21.615 22.0579 19.4343C23.3247 17.2535 26.1194 16.5125 28.3002 17.7792C30.4809 19.0459 31.2219 21.8406 29.9552 24.0214C28.6885 26.2022 25.8938 26.9432 23.713 25.6765Z" fill="white"/>
<path d="M11.4831 27.3632C11.5025 24.8413 13.5627 22.8127 16.0846 22.8322C18.6065 22.8516 20.6351 24.9118 20.6157 27.4337C20.5962 29.9556 18.536 31.9842 16.0141 31.9647C13.4922 31.9453 11.4636 29.8851 11.4831 27.3632Z" fill="white"/>
<path d="M3.96552 17.6892C6.15557 16.4386 8.94477 17.2002 10.1954 19.3903C11.446 21.5803 10.6844 24.3695 8.49434 25.6201C6.30429 26.8707 3.51509 26.1091 2.26449 23.9191C1.01389 21.729 1.77547 18.9398 3.96552 17.6892Z" fill="white"/>
<path d="M8.57683 6.27643C10.7482 7.55916 11.4686 10.3593 10.1859 12.5307C8.90316 14.7021 6.10304 15.4225 3.93165 14.1397C1.76026 12.857 1.03986 10.0569 2.32259 7.88549C3.60532 5.7141 6.40544 4.9937 8.57683 6.27643Z" fill="white"/>
<path d="M11.7391 15.9122C11.7391 14.1448 13.1718 12.7122 14.9391 12.7122H17.3391C19.1064 12.7122 20.5391 14.1448 20.5391 15.9122C20.5391 17.6795 19.1064 19.1122 17.3391 19.1122H14.9391C13.1718 19.1122 11.7391 17.6795 11.7391 15.9122Z" fill="white"/>
<path d="M46.285 23.2C44.8016 23.2 43.533 22.9029 42.479 22.3087C41.425 21.7145 40.6118 20.8826 40.0393 19.813C39.4798 18.7302 39.2 17.4559 39.2 15.9901C39.2 14.5376 39.4798 13.2765 40.0393 12.2069C40.6118 11.1241 41.425 10.2856 42.479 9.69138C43.533 9.09716 44.8016 8.80005 46.285 8.80005C46.9356 8.80005 47.5926 8.88588 48.2563 9.05755C48.9329 9.22921 49.5184 9.4603 50.0129 9.75081C50.4162 9.98849 50.6634 10.2856 50.7545 10.6421C50.8456 10.9987 50.8131 11.3354 50.6569 11.6523C50.5138 11.9692 50.2861 12.1937 49.9738 12.3258C49.6615 12.4578 49.3102 12.4116 48.9199 12.1871C48.5295 11.9494 48.1196 11.7778 47.6902 11.6721C47.2608 11.5665 46.825 11.5137 46.3825 11.5137C45.0684 11.5137 44.0729 11.9032 43.3963 12.6823C42.7327 13.4482 42.4009 14.5508 42.4009 15.9901C42.4009 17.4295 42.7327 18.5387 43.3963 19.3178C44.0729 20.0969 45.0684 20.4864 46.3825 20.4864C46.7989 20.4864 47.2218 20.4336 47.6512 20.328C48.0936 20.2223 48.5165 20.0573 48.9199 19.8328C49.3362 19.6083 49.7006 19.5621 50.0129 19.6941C50.3251 19.813 50.5528 20.0243 50.696 20.328C50.8521 20.6185 50.8912 20.942 50.8131 21.2985C50.735 21.6419 50.5138 21.9258 50.1495 22.1503C49.655 22.4804 49.0565 22.7379 48.3538 22.9227C47.6642 23.1076 46.9746 23.2 46.285 23.2Z" fill="white"/>
<path d="M55.3333 23.1604C54.3964 23.1604 53.928 22.6652 53.928 21.6749V10.3846C53.928 9.88285 54.0451 9.49991 54.2793 9.23581C54.5265 8.97171 54.8518 8.83966 55.2552 8.83966C55.5935 8.83966 55.8603 8.91229 56.0554 9.05755C56.2506 9.18959 56.4718 9.41408 56.719 9.731L63.0428 17.9115V10.3054C63.0428 9.32825 63.5112 8.83966 64.4481 8.83966C65.3849 8.83966 65.8533 9.32825 65.8533 10.3054V21.7343C65.8533 22.1701 65.7427 22.52 65.5215 22.7841C65.3003 23.035 65.0011 23.1604 64.6237 23.1604C64.2594 23.1604 63.9666 23.0878 63.7454 22.9426C63.5372 22.7973 63.3095 22.5662 63.0623 22.2493L56.7385 14.0688V21.6749C56.7385 22.6652 56.2701 23.1604 55.3333 23.1604Z" fill="white"/>
<path d="M71.1803 22.9822C70.1264 22.9822 69.5994 22.4474 69.5994 21.3778V10.6223C69.5994 9.55273 70.1264 9.01793 71.1803 9.01793H77.992C78.7857 9.01793 79.1826 9.41408 79.1826 10.2064C79.1826 11.0119 78.7857 11.4146 77.992 11.4146H72.488V14.6829H77.5431C78.3498 14.6829 78.7532 15.0856 78.7532 15.8911C78.7532 16.6966 78.3498 17.0994 77.5431 17.0994H72.488V20.5855H77.992C78.7857 20.5855 79.1826 20.9816 79.1826 21.7739C79.1826 22.5794 78.7857 22.9822 77.992 22.9822H71.1803Z" fill="white"/>
<path d="M89.2044 23.2C87.656 23.2 86.3418 22.9029 85.2618 22.3087C84.1948 21.7145 83.3816 20.8826 82.8221 19.813C82.2625 18.7434 81.9828 17.4889 81.9828 16.0496C81.9828 14.5706 82.2691 13.2897 82.8416 12.2069C83.4271 11.1241 84.2664 10.2856 85.3594 9.69138C86.4524 9.09716 87.7666 8.80005 89.3019 8.80005C90.0046 8.80005 90.7072 8.87928 91.4099 9.03774C92.1125 9.1962 92.7891 9.4603 93.4397 9.83003C93.791 10.0281 93.9992 10.2922 94.0643 10.6223C94.1424 10.9525 94.1098 11.276 93.9667 11.5929C93.8236 11.8966 93.6024 12.1211 93.3031 12.2663C93.0168 12.3984 92.672 12.3654 92.2687 12.1673C91.3969 11.7051 90.4145 11.4741 89.3215 11.4741C87.9292 11.4741 86.8817 11.8702 86.1791 12.6625C85.4895 13.4416 85.1447 14.5706 85.1447 16.0496C85.1447 17.5417 85.496 18.6707 86.1986 19.4366C86.9143 20.2025 87.9682 20.5855 89.3605 20.5855C90.1022 20.5855 90.8829 20.4666 91.7026 20.2289V17.4955H89.946C89.1393 17.4955 88.7359 17.1258 88.7359 16.3863C88.7359 15.6468 89.1393 15.2771 89.946 15.2771H93.0103C93.804 15.2771 94.2009 15.6864 94.2009 16.5051V21.1005C94.2009 21.4438 94.1293 21.7343 93.9862 21.972C93.8561 22.2097 93.6414 22.3813 93.3421 22.487C92.7566 22.6983 92.0995 22.8699 91.3708 23.002C90.6422 23.134 89.92 23.2 89.2044 23.2Z" fill="white"/>
<path d="M98.2447 23.1604C97.6982 23.1604 97.3079 22.9756 97.0737 22.6058C96.8395 22.2361 96.846 21.7805 97.0932 21.2391L102.09 10.1271C102.298 9.67818 102.545 9.35466 102.831 9.15658C103.118 8.9453 103.449 8.83966 103.827 8.83966C104.204 8.83966 104.536 8.9453 104.822 9.15658C105.108 9.35466 105.349 9.67818 105.544 10.1271L110.58 21.2391C110.827 21.7937 110.834 22.2559 110.599 22.6256C110.378 22.9822 110.014 23.1604 109.506 23.1604C109.064 23.1604 108.719 23.0548 108.472 22.8435C108.238 22.6322 108.03 22.3021 107.847 21.8531L107.028 19.9516H100.606L99.8062 21.8531C99.611 22.3153 99.4028 22.652 99.1816 22.8633C98.9604 23.0614 98.6481 23.1604 98.2447 23.1604ZM103.788 12.2862L101.621 17.5549H106.032L103.827 12.2862H103.788Z" fill="white"/>
<path d="M116.783 23.1604C116.289 23.1604 115.911 23.0218 115.651 22.7445C115.391 22.4672 115.261 22.0776 115.261 21.5758V11.5533H111.806C110.96 11.5533 110.538 11.1307 110.538 10.2856C110.538 9.44049 110.96 9.01793 111.806 9.01793H121.741C122.587 9.01793 123.009 9.44049 123.009 10.2856C123.009 11.1307 122.587 11.5533 121.741 11.5533H118.286V21.5758C118.286 22.0776 118.156 22.4672 117.896 22.7445C117.649 23.0218 117.278 23.1604 116.783 23.1604Z" fill="white"/>
<path d="M126.812 23.1604C126.318 23.1604 125.94 23.0218 125.68 22.7445C125.42 22.4672 125.29 22.0776 125.29 21.5758V10.4243C125.29 9.36786 125.797 8.83966 126.812 8.83966C127.814 8.83966 128.315 9.36786 128.315 10.4243V21.5758C128.315 22.6322 127.814 23.1604 126.812 23.1604Z" fill="white"/>
<path d="M137.779 23.1604C137.362 23.1604 137.018 23.068 136.744 22.8831C136.484 22.6851 136.269 22.3879 136.1 21.9918L131.182 10.8996C130.921 10.3054 130.921 9.81683 131.182 9.43389C131.455 9.03774 131.865 8.83966 132.411 8.83966C132.854 8.83966 133.186 8.9453 133.407 9.15658C133.641 9.35466 133.843 9.65177 134.012 10.0479L137.837 19.0405L141.663 10.0281C141.819 9.64517 142.014 9.35466 142.248 9.15658C142.496 8.9453 142.827 8.83966 143.244 8.83966C143.751 8.83966 144.129 9.03774 144.376 9.43389C144.636 9.81683 144.636 10.3054 144.376 10.8996L139.457 21.9918C139.275 22.3879 139.054 22.6851 138.794 22.8831C138.546 23.068 138.208 23.1604 137.779 23.1604Z" fill="white"/>
<path d="M148.798 22.9822C147.744 22.9822 147.217 22.4474 147.217 21.3778V10.6223C147.217 9.55273 147.744 9.01793 148.798 9.01793H155.609C156.403 9.01793 156.8 9.41408 156.8 10.2064C156.8 11.0119 156.403 11.4146 155.609 11.4146H150.105V14.6829H155.161C155.967 14.6829 156.371 15.0856 156.371 15.8911C156.371 16.6966 155.967 17.0994 155.161 17.0994H150.105V20.5855H155.609C156.403 20.5855 156.8 20.9816 156.8 21.7739C156.8 22.5794 156.403 22.9822 155.609 22.9822H148.798Z" fill="white"/>
</svg>
