<svg width="222" height="251" viewBox="0 0 222 251" fill="none" xmlns="http://www.w3.org/2000/svg">
<path d="M221.357 244.569H-181.357C-181.529 244.555 -181.693 244.391 -181.813 244.111C-181.933 243.831 -182 243.458 -182 243.069C-182 242.68 -181.933 242.306 -181.813 242.026C-181.693 241.746 -181.529 241.582 -181.357 241.569H221.357C221.529 241.582 221.693 241.746 221.813 242.026C221.933 242.306 222 242.68 222 243.069C222 243.458 221.933 243.831 221.813 244.111C221.693 244.391 221.529 244.555 221.357 244.569Z" fill="#C5B7EE"/>
<path d="M159.136 241.975C161.219 238.068 160.705 232.761 157.476 229.732C154.247 226.703 148.433 226.757 145.654 230.204C147.083 227.566 146.126 223.91 143.612 222.272C141.099 220.635 137.403 221.214 135.475 223.512C139.763 218.855 140.211 211.281 136.924 205.871C133.637 200.461 127.078 197.393 120.761 197.803C114.444 198.213 108.538 201.868 104.876 207.032C101.215 212.196 99.7146 218.731 100.17 225.045C99.9224 222.174 97.2054 219.863 94.331 219.668C91.4566 219.473 88.645 221.137 87.0321 223.524C85.4193 225.911 84.8998 228.914 85.1234 231.787C84.1995 230.062 82.7232 228.697 80.9312 227.91C79.1392 227.124 77.1352 226.962 75.2402 227.451C73.3452 227.939 71.669 229.049 70.4802 230.604C69.2913 232.158 68.6587 234.067 68.6836 236.023C67.8207 232.317 63.9614 229.564 60.1759 229.956C56.3904 230.348 53.1765 233.832 53.091 237.637C52.1533 236.812 51.0001 236.27 49.7661 236.075C48.5321 235.88 47.2681 236.041 46.1217 236.537C44.9753 237.033 43.9937 237.846 43.2916 238.879C42.5894 239.912 42.1956 241.124 42.1561 242.373" fill="#C5B7EE"/>
<path d="M158.594 241.658C160.148 238.684 160.186 234.884 158.465 231.968C157.655 230.628 156.466 229.558 155.047 228.895C153.629 228.231 152.045 228.004 150.497 228.241C148.781 228.464 147.211 229.323 146.097 230.647C145.626 231.219 144.796 230.491 145.112 229.887C146.341 227.534 145.542 224.273 143.295 222.814C140.966 221.301 137.707 221.886 135.918 223.956L135.031 223.069C138.093 219.698 139.083 214.81 138.082 210.422C137.041 205.864 133.815 202.232 129.662 200.196C125.419 198.15 120.542 197.852 116.082 199.367C111.464 200.957 107.515 204.053 104.869 208.158C101.639 213.136 100.392 219.168 100.797 225.045C100.853 225.859 99.6228 225.835 99.5416 225.045C99.24 222.108 96.2434 220.117 93.4356 220.294C90.1736 220.499 87.5219 223.082 86.4513 226.041C85.8167 227.885 85.5779 229.843 85.7505 231.787C85.7957 232.415 84.8708 232.631 84.581 232.103C83.8953 230.89 82.9194 229.866 81.7405 229.122C80.5617 228.379 79.2168 227.94 77.8265 227.844C76.42 227.769 75.0189 228.068 73.7658 228.711C72.5127 229.354 71.4523 230.318 70.6926 231.504C69.797 232.841 69.3162 234.414 69.3107 236.023C69.3063 236.173 69.249 236.316 69.1491 236.427C69.0492 236.538 68.9131 236.609 68.765 236.63C68.617 236.65 68.4667 236.616 68.3409 236.536C68.215 236.455 68.1218 236.333 68.0779 236.19C67.63 234.491 66.6043 233.002 65.1771 231.977C63.75 230.953 62.0105 230.457 60.2577 230.576C56.7489 230.904 53.8376 234.159 53.7182 237.637C53.7144 237.76 53.6755 237.878 53.6059 237.979C53.5363 238.08 53.4391 238.158 53.3259 238.205C53.2127 238.252 53.0885 238.265 52.968 238.243C52.8475 238.221 52.736 238.165 52.6468 238.081C51.7971 237.343 50.7559 236.861 49.6435 236.69C48.5312 236.519 47.3933 236.667 46.3613 237.116C45.3294 237.565 44.4457 238.297 43.8125 239.227C43.1793 240.157 42.8225 241.248 42.7832 242.373C42.7465 243.177 41.4911 243.182 41.528 242.373C41.5686 241 41.9999 239.668 42.7712 238.532C43.5424 237.397 44.6217 236.504 45.8823 235.961C47.1429 235.417 48.5324 235.244 49.8878 235.462C51.2433 235.681 52.5083 236.281 53.5343 237.193L52.4629 237.637C52.5425 236.04 53.0524 234.495 53.9386 233.165C54.8249 231.834 56.0545 230.768 57.4971 230.08C60.4883 228.672 63.905 229.294 66.4278 231.36C67.8402 232.512 68.8433 234.089 69.2883 235.856L68.0555 236.023C68.0761 234.39 68.5082 232.788 69.3118 231.365C70.1154 229.943 71.2646 228.746 72.6532 227.885C74.0336 227.065 75.6034 226.619 77.2087 226.589C78.8139 226.559 80.3992 226.948 81.8089 227.716C83.4338 228.563 84.7744 229.868 85.6648 231.47L84.4953 231.787C84.2199 227.951 85.2314 223.772 88.2769 221.204C90.9943 218.912 94.9618 218.186 97.9799 220.352C98.7584 220.886 99.4127 221.582 99.8988 222.392C100.385 223.202 100.691 224.106 100.797 225.045H99.5416C99.1581 219.476 100.234 213.753 102.978 208.861C105.535 204.278 109.557 200.686 114.398 198.659C119.076 196.701 124.337 196.663 129.043 198.553C133.602 200.422 137.395 204.037 138.932 208.781C140.598 213.927 139.591 219.913 135.918 223.956C135.371 224.559 134.507 223.675 135.031 223.069C137.196 220.561 141.298 219.902 144.059 221.818C145.39 222.779 146.336 224.183 146.727 225.777C147.119 227.371 146.93 229.053 146.195 230.521L145.21 229.76C147.494 226.993 151.568 226.276 154.86 227.451C158.515 228.756 160.681 232.241 160.975 236.019C161.138 238.19 160.688 240.363 159.678 242.292C159.303 243.008 158.22 242.374 158.594 241.658L158.594 241.658Z" fill="#C5B7EE"/>
<path d="M126.375 214.88C124.67 222.073 121.82 228.945 117.933 235.234C116.836 237.006 115.659 238.725 114.401 240.39C113.921 241.027 112.831 240.403 113.318 239.757C117.721 233.919 121.152 227.409 123.478 220.477C124.13 218.526 124.693 216.549 125.165 214.546C125.351 213.76 126.561 214.093 126.375 214.88Z" fill="white"/>
<path d="M118.613 220.535C119.788 222.959 120.746 225.482 121.477 228.075C121.515 228.234 121.49 228.4 121.407 228.541C121.324 228.681 121.19 228.783 121.033 228.827C120.876 228.87 120.708 228.85 120.565 228.773C120.422 228.695 120.315 228.564 120.267 228.409C119.569 225.919 118.653 223.496 117.529 221.168C117.179 220.444 118.261 219.807 118.613 220.535Z" fill="white"/>
<path d="M122.226 233.942C121.574 233.876 120.919 233.838 120.264 233.83C119.936 233.826 119.609 233.83 119.281 233.841C119.15 233.845 119.017 233.845 118.887 233.862C119.025 233.844 118.865 233.874 118.835 233.883C118.901 233.852 118.902 233.853 118.84 233.887C118.897 233.842 118.9 233.845 118.85 233.897C118.732 234.014 118.573 234.08 118.406 234.08C118.24 234.08 118.081 234.014 117.963 233.897C117.849 233.777 117.785 233.618 117.785 233.453C117.785 233.288 117.849 233.129 117.963 233.009C118.099 232.874 118.26 232.768 118.439 232.697C118.617 232.626 118.808 232.592 118.999 232.597C119.344 232.575 119.692 232.573 120.037 232.574C120.768 232.575 121.499 232.614 122.226 232.687C122.391 232.69 122.549 232.758 122.666 232.875C122.783 232.992 122.85 233.149 122.854 233.314C122.852 233.48 122.785 233.639 122.668 233.756C122.55 233.874 122.392 233.94 122.226 233.942L122.226 233.942Z" fill="white"/>
<path d="M114.18 234.854C114.601 235.85 114.985 236.859 115.319 237.887C115.362 238.047 115.34 238.218 115.258 238.363C115.176 238.507 115.041 238.614 114.881 238.659C114.721 238.699 114.551 238.676 114.407 238.595C114.263 238.513 114.156 238.379 114.109 238.221C113.953 237.742 113.787 237.266 113.612 236.794C113.527 236.567 113.44 236.34 113.351 236.115C113.303 235.993 113.254 235.872 113.205 235.751C113.184 235.699 113.162 235.648 113.141 235.596C113.132 235.574 113.042 235.36 113.096 235.488C113.017 235.34 112.994 235.168 113.033 235.004C113.066 234.885 113.133 234.778 113.226 234.697C113.319 234.616 113.434 234.565 113.557 234.549C113.679 234.533 113.804 234.553 113.914 234.607C114.025 234.662 114.118 234.748 114.18 234.854V234.854Z" fill="white"/>
<path d="M137.83 233.71C136.601 236.291 135.217 238.794 133.685 241.206C133.253 241.886 132.166 241.257 132.601 240.573C134.133 238.161 135.518 235.657 136.746 233.077C137.093 232.348 138.175 232.984 137.83 233.71Z" fill="white"/>
<path d="M138.65 237.911C137.583 238.076 136.525 238.286 135.476 238.541C135.397 238.563 135.313 238.569 135.232 238.559C135.15 238.549 135.071 238.523 134.999 238.482C134.927 238.441 134.865 238.387 134.814 238.322C134.763 238.257 134.726 238.182 134.704 238.103C134.682 238.023 134.676 237.94 134.686 237.859C134.696 237.777 134.723 237.698 134.763 237.626C134.804 237.554 134.858 237.491 134.923 237.441C134.988 237.39 135.063 237.353 135.142 237.331C136.191 237.076 137.249 236.866 138.316 236.701C138.477 236.661 138.646 236.684 138.79 236.766C138.934 236.847 139.04 236.981 139.088 237.139C139.131 237.299 139.109 237.47 139.027 237.614C138.945 237.759 138.809 237.865 138.65 237.911Z" fill="white"/>
<path d="M131.712 227.846V227.768C131.716 227.603 131.784 227.446 131.901 227.329C132.017 227.212 132.174 227.145 132.34 227.14L132.507 227.163C132.611 227.192 132.707 227.247 132.783 227.324L132.882 227.451C132.938 227.547 132.967 227.657 132.967 227.768V227.846C132.963 228.011 132.895 228.168 132.779 228.285C132.662 228.401 132.505 228.469 132.34 228.473L132.173 228.451C132.068 228.422 131.973 228.366 131.896 228.29L131.798 228.162C131.741 228.066 131.712 227.957 131.712 227.846Z" fill="white"/>
<path d="M129.77 226.605C129.608 226.6 129.454 226.531 129.34 226.414C129.227 226.297 129.164 226.14 129.164 225.977C129.164 225.815 129.227 225.658 129.34 225.541C129.454 225.424 129.608 225.355 129.77 225.35C129.933 225.355 130.087 225.424 130.201 225.541C130.314 225.658 130.377 225.815 130.377 225.977C130.377 226.14 130.314 226.297 130.201 226.414C130.087 226.531 129.933 226.6 129.77 226.605Z" fill="white"/>
<path d="M129.46 231.509C129.297 231.504 129.143 231.435 129.03 231.318C128.917 231.201 128.853 231.045 128.853 230.882C128.853 230.719 128.917 230.562 129.03 230.445C129.143 230.328 129.297 230.26 129.46 230.254C129.623 230.26 129.777 230.328 129.89 230.445C130.003 230.562 130.066 230.719 130.066 230.882C130.066 231.045 130.003 231.201 129.89 231.318C129.777 231.435 129.623 231.504 129.46 231.509Z" fill="white"/>
<path d="M95.5205 234.234C95.3578 234.228 95.2036 234.16 95.0904 234.043C94.9773 233.925 94.914 233.769 94.914 233.606C94.914 233.443 94.9773 233.287 95.0904 233.17C95.2036 233.053 95.3578 232.984 95.5205 232.979C95.6832 232.984 95.8374 233.053 95.9506 233.17C96.0637 233.287 96.127 233.443 96.127 233.606C96.127 233.769 96.0637 233.925 95.9506 234.043C95.8374 234.16 95.6832 234.228 95.5205 234.234Z" fill="white"/>
<path d="M92.1777 231.893L92.1001 232.672C92.0956 232.837 92.0281 232.994 91.9114 233.111C91.7946 233.228 91.6375 233.295 91.4724 233.299C91.3061 233.299 91.1468 233.233 91.0287 233.116L90.9305 232.989C90.8742 232.893 90.8447 232.783 90.8448 232.672L90.9225 231.893C90.9269 231.728 90.9945 231.571 91.1112 231.455C91.228 231.338 91.3851 231.27 91.5501 231.266C91.7164 231.267 91.8758 231.333 91.9939 231.45L92.092 231.577C92.1483 231.673 92.1779 231.782 92.1777 231.893Z" fill="white"/>
<path d="M91.0054 238.593C90.8428 238.587 90.6887 238.518 90.5757 238.401C90.4627 238.284 90.3995 238.128 90.3995 237.965C90.3995 237.803 90.4627 237.646 90.5757 237.529C90.6887 237.412 90.8428 237.343 91.0054 237.338C91.168 237.343 91.3221 237.412 91.4351 237.529C91.5482 237.646 91.6113 237.803 91.6113 237.965C91.6113 238.128 91.5482 238.284 91.4351 238.401C91.3221 238.518 91.168 238.587 91.0054 238.593Z" fill="white"/>
<path d="M198.597 204.239C171.744 196.541 157.635 169.663 135.413 154.845C123.483 146.89 108.808 141.911 94.8041 147.35C81.7535 152.418 72.9777 164.055 62.8135 173.081C57.745 177.582 52.1474 181.679 45.8502 184.28C39.7089 186.89 32.8884 187.444 26.4063 185.86C24.4145 185.388 22.4082 184.864 20.3455 184.895C18.336 184.926 16.4642 185.6 14.5988 186.279C11.3075 187.477 8.09732 188.191 4.57745 187.857C-2.55 187.181 -8.83716 183.437 -14.5558 179.385C-20.7025 175.031 -26.6581 170.314 -33.9796 168.099C-41.2965 165.885 -49.164 165.904 -56.6168 167.414C-64.1991 168.95 -71.3756 172.031 -78.1222 175.762C-84.7586 179.432 -90.7649 184.154 -97.4358 187.736C-100.284 189.266 -103.335 190.51 -106.555 190.954C-110.055 191.437 -113.47 190.806 -116.847 189.896C-120.417 188.935 -123.95 187.737 -127.676 187.597C-130.545 187.516 -133.407 187.923 -136.141 188.799C-147.318 192.264 -155.965 200.946 -166.655 205.486C-169.287 206.625 -172.047 207.44 -174.875 207.915C-175.665 208.043 -176.005 206.834 -175.209 206.705C-163.167 204.756 -153.95 195.98 -143.444 190.526C-138.719 188.073 -133.559 186.246 -128.172 186.329C-120.829 186.441 -114.056 190.769 -106.64 189.7C-99.1841 188.625 -92.9897 183.477 -86.8382 179.529C-80.4815 175.449 -73.8493 171.739 -66.7675 169.068C-53.3262 164 -37.9953 163.213 -25.2325 170.576C-18.7471 174.318 -13.1753 179.469 -6.54738 182.979C-3.10234 184.803 0.671402 186.231 4.57748 186.602C8.51231 186.975 11.8193 185.889 15.4747 184.631C18.87 183.463 21.964 183.54 25.433 184.338C29.2102 185.206 32.813 185.869 36.7038 185.436C44.067 184.615 50.8172 180.884 56.6613 176.511C67.6315 168.302 75.8132 156.793 87.5844 149.58C93.1776 146.153 99.4434 143.997 106.028 143.757C112.693 143.514 119.27 145.172 125.344 147.831C138.376 153.537 148.679 163.449 158.477 173.486C167.838 183.074 177.36 193.133 189.448 199.295C192.482 200.841 195.658 202.091 198.931 203.028C199.706 203.251 199.377 204.462 198.598 204.239L198.597 204.239Z" fill="#C5B7EE"/>
<path d="M64.9282 186.451C67.6098 184.921 69.9046 182.789 71.963 180.488C73.1181 179.196 74.2232 177.819 74.8689 176.211C75.5145 174.603 75.6529 172.72 74.889 171.165C74.1251 169.61 72.3303 168.518 70.6376 168.888C68.6251 169.327 67.5168 171.437 66.6771 173.318C66.3972 172.102 66.5913 170.831 66.5016 169.587C66.412 168.342 65.9188 166.983 64.7838 166.465C63.6953 165.967 62.3456 166.452 61.5491 167.345C60.7527 168.238 60.4137 169.449 60.2438 170.634C59.4873 175.908 61.6002 181.134 63.808 185.984" fill="#C5B7EE"/>
<path d="M65.9343 185.244C67.7693 184.166 69.4611 182.861 70.9694 181.359C71.7283 180.62 72.4547 179.847 73.154 179.051C73.877 178.254 74.5247 177.392 75.0888 176.476C76.1256 174.731 76.7213 172.494 75.8815 170.544C75.1974 168.956 73.3865 167.756 71.6391 168.263C69.7658 168.807 68.8072 170.871 68.0766 172.504C67.9754 172.73 67.6018 172.665 67.551 172.435C67.3162 171.377 67.4055 170.299 67.3895 169.225C67.377 168.387 67.2706 167.528 66.8563 166.784C66.4801 166.108 65.848 165.614 65.0521 165.594C64.6438 165.598 64.241 165.688 63.8705 165.86C63.5 166.031 63.1703 166.28 62.9036 166.589C62.2812 167.285 61.9678 168.201 61.7842 169.101C61.5901 170.102 61.5041 171.12 61.5275 172.14C61.5561 174.208 61.9698 176.248 62.5722 178.221C63.2702 180.507 64.2188 182.706 65.2075 184.879C65.3597 185.214 64.8641 185.506 64.7109 185.169C62.8778 181.141 61.09 176.898 60.9582 172.408C60.9222 171.33 60.9978 170.25 61.1838 169.187C61.3579 168.217 61.672 167.244 62.2763 166.452C62.8258 165.71 63.6412 165.209 64.5517 165.055C64.9822 164.984 65.4235 165.022 65.8356 165.166C66.2476 165.309 66.6174 165.553 66.9114 165.875C67.5591 166.592 67.844 167.566 67.9309 168.51C68.0465 169.766 67.8303 171.041 68.1057 172.282L67.5801 172.214C68.301 170.602 69.2071 168.742 70.8855 167.941C72.6971 167.076 74.7626 167.874 75.9065 169.432C77.2112 171.21 77.0169 173.671 76.1842 175.599C75.2876 177.675 73.68 179.41 72.1243 181.015C70.3669 182.829 68.4212 184.481 66.2247 185.74C65.903 185.924 65.613 185.428 65.9344 185.243L65.9343 185.244Z" fill="#1D1D32"/>
<path d="M74.7363 155.365C75.9387 155.01 77.0169 154.323 77.8476 153.384C78.6784 152.444 79.2282 151.29 79.4342 150.053C79.6009 148.951 79.2508 147.533 78.1576 147.313C77.5036 147.181 76.8335 147.572 76.4392 148.11C76.0448 148.648 75.8692 149.311 75.7016 149.957C75.8723 149.009 75.7881 148.033 75.4577 147.129C75.2415 146.54 74.8267 145.923 74.202 145.865C73.2601 145.776 72.7447 146.942 72.6492 147.883C72.4027 150.395 73.0209 152.916 74.4017 155.029" fill="#1D1D32"/>
<path d="M74.6598 155.088C75.5233 154.831 76.3231 154.395 77.0075 153.809C77.6918 153.223 78.2455 152.5 78.6327 151.686C78.9997 150.924 79.2487 150.043 79.1712 149.191C79.1089 148.505 78.7661 147.629 77.9676 147.577C77.4376 147.543 76.9386 147.897 76.646 148.314C76.2882 148.824 76.1333 149.439 75.9789 150.034C75.8843 150.398 75.3618 150.239 75.4243 149.881C75.5939 148.907 75.5087 147.775 75.0389 146.89C74.8653 146.563 74.5967 146.205 74.202 146.152C74.0475 146.141 73.893 146.172 73.7546 146.242C73.6163 146.311 73.4992 146.417 73.4156 146.547C72.923 147.201 72.8889 148.098 72.8825 148.882C72.8676 151.013 73.4825 153.101 74.65 154.884C74.853 155.195 74.3553 155.484 74.1534 155.175C72.9092 153.262 72.2669 151.02 72.3094 148.739C72.3287 147.807 72.4288 146.76 73.0928 146.04C73.2303 145.884 73.4017 145.761 73.5939 145.681C73.7861 145.6 73.994 145.565 74.202 145.577C74.4326 145.606 74.6542 145.685 74.8513 145.809C75.0484 145.932 75.2163 146.097 75.3434 146.292C75.6843 146.805 75.9044 147.39 75.9872 148.001C76.1012 148.674 76.0984 149.362 75.9789 150.034L75.4243 149.881C75.7166 148.756 76.1385 147.485 77.3617 147.086C77.6004 147.007 77.8542 146.982 78.1037 147.015C78.3533 147.048 78.592 147.138 78.8017 147.277C79.1653 147.544 79.4352 147.92 79.5731 148.35C79.9065 149.285 79.7551 150.325 79.4349 151.24C79.0897 152.22 78.5329 153.112 77.8039 153.852C76.978 154.697 75.9475 155.314 74.8127 155.643C74.4561 155.745 74.3039 155.19 74.6599 155.088L74.6598 155.088Z" fill="#C5B7EE"/>
<path d="M89.0057 138.232C90.2673 137.58 91.6417 136.879 92.36 135.59C92.7115 135.005 92.8405 134.313 92.7235 133.641C92.6664 133.377 92.5522 133.041 92.23 133.043C91.9346 133.045 91.6597 133.281 91.4727 133.487C91.0114 133.996 90.7222 134.703 89.9732 134.846C89.8109 134.877 89.5855 134.769 89.6092 134.569C89.701 133.793 89.8355 132.863 89.3889 132.166C89.0753 131.676 88.356 131.277 87.8254 131.686C87.3567 132.048 87.3201 132.778 87.3432 133.317C87.3885 134.149 87.5292 134.973 87.7625 135.773C88.028 136.716 88.4072 137.623 88.8916 138.475C89.0745 138.797 88.5778 139.088 88.395 138.765C87.8983 137.892 87.5067 136.963 87.2285 135.998C86.9464 135.074 86.7901 134.115 86.7638 133.149C86.7593 132.438 86.9161 131.625 87.535 131.19C88.2164 130.71 89.1148 130.994 89.644 131.564C90.3968 132.374 90.3045 133.552 90.1843 134.569L89.8203 134.291C90.5194 134.158 90.7718 133.3 91.2716 132.883C91.5398 132.631 91.8898 132.483 92.2576 132.468C92.4394 132.475 92.6158 132.531 92.7678 132.631C92.9199 132.731 93.0419 132.871 93.1206 133.035C93.4703 133.73 93.3869 134.62 93.1146 135.325C92.816 136.072 92.3322 136.73 91.7088 137.238C90.979 137.849 90.1373 138.294 89.296 138.729C88.9676 138.898 88.6764 138.402 89.0057 138.232Z" fill="#C5B7EE"/>
<path d="M90.3608 171.003C92.045 170.848 93.6009 170.037 94.6921 168.745C95.2253 168.112 95.7611 167.222 95.5522 166.359C95.3877 165.68 94.7615 165.099 94.0341 165.353C93.27 165.62 92.823 166.531 92.5117 167.215C92.3785 167.508 91.8605 167.295 91.9861 166.993C92.3827 166.031 92.405 164.954 92.0486 163.976C91.8762 163.492 91.6093 163.048 91.2633 162.668C90.9403 162.318 90.4583 161.933 89.9508 162.112C89.6048 162.235 89.4057 162.593 89.2937 162.921C89.1571 163.345 89.0929 163.789 89.1038 164.234C89.1194 165.607 89.207 166.978 89.366 168.341C89.4335 168.939 89.4869 169.551 89.6977 170.12C89.8449 170.517 90.1202 170.976 90.5833 171.032C90.6588 171.034 90.7306 171.065 90.784 171.118C90.8375 171.172 90.8685 171.244 90.8709 171.319C90.8705 171.395 90.8401 171.468 90.7862 171.522C90.7324 171.576 90.6594 171.606 90.5833 171.607C89.4319 171.468 89.0363 170.233 88.9021 169.241C88.6905 167.671 88.5674 166.091 88.5335 164.507C88.5129 163.555 88.6014 162.257 89.5047 161.693C90.6556 160.974 91.8293 162.252 92.3231 163.184C92.6452 163.789 92.8316 164.457 92.8692 165.141C92.9068 165.825 92.7947 166.51 92.5407 167.146L92.0151 166.925C92.3611 166.164 92.8419 165.298 93.6205 164.908C94.4666 164.484 95.4172 164.832 95.8795 165.639C96.4064 166.559 96.1291 167.645 95.5904 168.491C95.0555 169.311 94.3474 170.005 93.5157 170.523C92.5638 171.122 91.4818 171.484 90.3608 171.578C89.992 171.609 89.9941 171.034 90.3608 171.003L90.3608 171.003Z" fill="#C5B7EE"/>
</svg>
