<svg width="168" height="86" viewBox="0 0 168 86" fill="none" xmlns="http://www.w3.org/2000/svg">
<path d="M26.0067 20.4666C26.8627 30.4091 28.5458 40.2602 31.0379 49.9145C31.53 51.8172 34.4376 51.0102 33.9438 49.1012C31.5099 39.7143 29.8629 30.1351 29.0205 20.4662C28.8519 18.5203 25.8369 18.5022 26.0069 20.4662L26.0067 20.4666Z" fill="#1D1D32"/>
<path d="M81.7941 1.46745C81.84 16.1758 81.244 30.8674 80.0061 45.5424C79.8417 47.491 83.046 47.4808 83.2096 45.5424C84.4469 30.8808 85.0429 16.1892 84.9976 1.46745C84.9834 1.0737 84.8084 0.700582 84.5095 0.426806C84.2107 0.153031 83.8114 0 83.3958 0C82.9803 0 82.581 0.153031 82.2822 0.426806C81.9833 0.700582 81.8083 1.0737 81.7941 1.46745Z" fill="#1D1D32"/>
<path d="M143.114 10.7596C135.513 24.9332 128.196 39.2452 121.164 53.6959C120.313 55.4456 123.003 56.9816 123.86 55.2214C130.89 40.7737 138.206 26.4617 145.809 12.2852C146.734 10.5612 144.042 9.03054 143.114 10.7596Z" fill="#1D1D32"/>
<path d="M159.489 85.5941C160.653 84.2501 161.904 82.9792 163.237 81.7893C163.886 81.2106 164.553 80.652 165.239 80.1135C165.425 79.968 165.611 79.8241 165.799 79.6817C165.831 79.6576 166.079 79.4722 165.899 79.6055C165.974 79.5493 166.05 79.4935 166.127 79.438C166.508 79.16 166.894 78.8884 167.285 78.6232C167.614 78.4288 167.853 78.1195 167.951 77.7599C168.049 77.4002 167.999 77.018 167.811 76.6931C167.612 76.3733 167.29 76.1414 166.915 76.0467C166.541 75.9521 166.142 76.0024 165.805 76.1867C162.687 78.297 159.867 80.7885 157.416 83.5986C157.149 83.867 157 84.2244 157 84.5961C157 84.9677 157.149 85.3251 157.416 85.5936C157.693 85.8541 158.065 86 158.453 86C158.84 86 159.212 85.8541 159.49 85.5936L159.489 85.5941Z" fill="#1D1D32"/>
<path d="M8.51092 75.5941C7.34734 74.2501 6.0955 72.9792 4.76308 71.7893C4.11415 71.2106 3.44669 70.652 2.76068 70.1135C2.57542 69.968 2.38887 69.8241 2.20107 69.6817C2.16932 69.6576 1.92138 69.4722 2.10129 69.6055C2.02562 69.5493 1.94959 69.4935 1.8732 69.438C1.49215 69.16 1.10613 68.8884 0.7151 68.6232C0.385728 68.4288 0.147106 68.1195 0.049057 67.7599C-0.0489912 67.4002 0.00109673 67.018 0.188878 66.6931C0.38828 66.3733 0.709774 66.1414 1.08461 66.0467C1.45945 65.9521 1.85792 66.0024 2.19476 66.1867C5.31312 68.297 8.13307 70.7885 10.5838 73.5986C10.8509 73.867 11 74.2244 11 74.5961C11 74.9677 10.8509 75.3251 10.5838 75.5936C10.3066 75.8541 9.93453 76 9.54709 76C9.15964 76 8.7876 75.8541 8.51048 75.5936L8.51092 75.5941Z" fill="#1D1D32"/>
</svg>
